<mxfile host="app.diagrams.net" modified="2020-12-02T14:34:51.404Z" agent="5.0 (Windows NT 10.0; Win64; x64) AppleWebKit/537.36 (KHTML, like Gecko) Chrome/83.0.4103.61 Safari/537.36" etag="hw5DoHpGauSnaQWV2Dff" version="13.10.5" type="github">
  <diagram id="UQ0momzVLbKyQrSkyG3Z" name="Page-1">
    <mxGraphModel dx="1736" dy="900" grid="1" gridSize="10" guides="1" tooltips="1" connect="1" arrows="1" fold="1" page="1" pageScale="1" pageWidth="1100" pageHeight="850" math="0" shadow="0">
      <root>
        <mxCell id="0" />
        <mxCell id="1" parent="0" />
        <mxCell id="5ZlzFRV1RBMYGkfswWvm-1" value="" style="shape=image;verticalLabelPosition=bottom;labelBackgroundColor=#ffffff;verticalAlign=top;aspect=fixed;imageAspect=0;image=data:image/png,iVBORw0KGgoAAAANSUhEUgAAAjcAAAEJCAYAAABosAbuAAAAAXNSR0IArs4c6QAAAARnQU1BAACxjwv8YQUAAAAJcEhZcwAADsMAAA7DAcdvqGQAACiQSURBVHhe7Z1NiGxJdt/LC39AbUQhKC9U2BS42oMxaKGFtHN7VUIbrQZtHmhhjDwgLExhHngxGzf2ooVQLyxaFFYb4RkwaqTFCA20zWMww/AGMS0s0SPEtPQQD321vmZAmhHDkM7fzXuyTkbGzYz6yqrI+v2GM5n33rgRJ07EjfPPyKx+ByIiIiIiIiIiIiIiIiIiIiIiIiIiIiIiIiIiIiIiIiIiIiIiIiIiIvJYOTyenZ6dzo4PD2bjmTlHs5Ozs9nZYCezo4N8TUREROQRc3SCgFkVN5w7PT4cjofrJ0eKGxEREemAo5PZ2elpsXPDrk06HnZ23L0RERGRRw8iZi5ayq+l1sRMIXZEREREHiOHx6eLr57uQNx86lOfGn+fc2VvvPHG2jlN0zRN0x6FfW9M4XsEAub0eHaIgLkDcUOgeqM3n1+/fj178803x6M+ePny5ezZs2fjUR/06PP7778/e/78+XjUB++8885gPUGMiXVP9Ogzzx/PYU+wNrNG9wQ5cEzh+wM/Ej45ymJGcfPYUdzsBsXNblDc7AbFzW5Q3DwKECvVLarxr6IKMbMmdtbh3t7ozWfFzW5Q3OwGxc1uUNzsBsXNY6TcuZmT//y75U/BFTf3j+JmNyhudoPiZjcobnaD4uYxUhE3q7s7m3dtoEdx05tQ+OSTT2af/vSnx6M++Oijj2af+cxnxqM+6NHnDz74YPbWW2+NR33w3nvvDdYTxJhY90SPPvP88Rz2BGsza3RP7L+4uQN6FDciIiJPFcVNA4obERGRflDcNKC4ERER6QfFTQOKGxERkX5Q3DSguBEREekHxU0DihsREZF+UNw0oLgRERHpB8VNA4obERGRflDcNKC4ERER6QfFTQOKGxERkX5Q3DSguBEREekHxU0DihsREZF+UNw0oLgRERHpB8VNA4obERGRflDcNKC4ERER6QfFTQOKGxERkX5Q3DSguBEREekHxU0DihsREZF+UNw0oLgRERHpB8VNAz2LmxcXBwzw0s4vX41XdsCry9n5+eXs1i1Sz9z3ixfj8cCL2cXBxfz/t3BXPry4WInjwaozq9y0zbvyVUTkiaO4aaBXcTMIm5Uk/Gp2eb5jgXMXDEn/vEj8jeLmTlhvi9h2F0cRkSeC4qaBLsXN1C4A55PgeXV5vtyNWCZrdinSvSTyxS0LcRTlr6qZOF/4UG1rKHMxu6jWOzLW82J+/5WgKAQHZcb7D8rzgw8bfIz7hnIV0bSso2RR9mK5OzbeF+WH10rfNp7fcB9wbTx3fnk5L1PzS0TkaaO4aaBLcYNAWVMJBZFMy/dT4iaXmfPixVh/y/lN73PyLtoeWJZHoJzPFvomi5CFcIk6BhF1dbC4N7c5Z+Fjrm9x39RuTFWYDT5U2s1t1vq26fym67V+DudFRCSjuGlgH8RNTs4rCXFMpItro1goBMbVzs0imR8cXAmCBRPnI1mPh9W2hnNpp6S8B/K55fskbsp7cp0r5Usf41yyFLMphq/75mUv5gJpdZdnPI42sx/Qcr7l+nj6qm8iIpJR3DTQpbiZSnz5PO8jieb3k+JmZCg7T/Bl/eX5lrZyGSiPoTiHUFsRFpvqqF1b+liKk2swiEe+Okp1R33R5pRf285f977xUEREFihuGuhS3MwZdhiKnYiVrzLS7s5iZ6ciPoaEXYibgSlhMCE6NrW1LWGvnVv4tKxjfmXr11KLo5HwcfU+4lX9WqoQewPzc8NvXlJslu1Gm1N923Z+6vr8f34tJSKyHcVNA72KG1gICYTAaCvJMEQCSf3FkDgjucdXLwiIy3kdi5y9WtdKkq2cv0rKMNHWZCJP1M4hOJbiZg5llj4U5+f38mPkSR/j/NBGEmeJtTgOFSzKbv5BcaVv285PXY/3ow/nFxer5UREZEBx00DP4kbuk7oQ2hlpN0xERK5Q3DSguJE6uxY3i6+l5lNytAcUViIijxjFTQOKGxERkX5Q3DSguBEREekHxU0DihsREZF+UNw0oLgRERHpB8VNA4obERGRflDcNKC4ERER6QfFTQOKGxERkX5Q3DSguBEREekHxU0DihsREZF+UNw0oLgRERHpB8VNA4obERGRflDcNKC4ERER6QfFTQOKGxERkX5Q3DSguBEREekHxU0DihsREZF+UNw0oLgRERHpB8VNA4obERGRflDcNKC4ERER6Yf9FTeHx7PTeefo4NnZ6ez48CB19Gh2srx2Mjs6yNfWUdyIiIj0w56Km4V4OTkaRcvRyYqIOTo5m50eHy7fn50cKW5ERET2hP0UN4iZ0+PZ4XJHBrETuzf5/Zxhh2fz7o3iRkREpB/2dOemJAmaNTFTiJ0KBOnZs2cr9tZbb40hFBERkYfi3XffXcvRT0LcDF89xU7ODcXNy5cvV+yjjz4awyoiIiIPxccff7yWo/de3Bwen847uelrqDZxIyIiIn2w1+JmTdiA4kZERGSv2VtxUxU2A4WY8QfFIiIie8V+iptBsEzvxuQ///ZPwUVERPaLvRQ3g2CZd6y05X/3Zti9ifObd22AciIiItIH5O0xhcsUihsREZF+UNw0oLgRERHpB8VNA4obERGRflDcNKC4ERER6QfFTQOKGxERkX5Q3DSguBEREekHxU0DihsREZF+UNw0oLgRERHpB8VNA4obERGRflDcNKC4ERER6QfFTQOKGxERkX5Q3DSguBEREekHxU0DihsREZF+UNw0oLgRERHpB8VNA4obERGRflDcNKC4ERER6QfFTQOKGxERkX5Q3DSguBEREekHxU0DihsREZF+UNw0oLgRERHpB8VNA4obERGRflDcNKC4ERER6QfFTQOKGxERkX5Q3DSguBEREekHxU0DihsRuS0vvvGX4zsRuW8UNw0obkTkthz8h/8zvhOR+0Zx04DiRkRuy1MUNz/za783+9Xf/rPxSGR3KG4aUNyIPDwfvv7W7Pmvf2P2x9/6u/HM4+c3vv7ns29/93vD+8cubojvT37+o/Hoij/4i2+P764P9f3SV/9oPBLZHYqbBhQ3IncDiZIkehM++8XfHwTCLncCPv+1P7m2mOK3NX/1t98d3v/T//zl5W9tHru4wU98xPfwn/GiDzdlV+IG390hkozipgHFzSosVrddsEhwP/7f/994NI0/wrx/+OogktlNaf10j0DBbkKIG+y2uzfspnz9T/9mPJrmX/23rw3xuQ7cE/O2R3GD/zFGj0HcUMc2QXybeSX7ieKmAcXNKnexkLCQsojW4Hwk2zIh3CSpUddNdwsyLNIstLfZfQha+xFfadT4iV/+nVslDuKCwCR5kei/8uqvxyvXg7H84Z//zSaBdJu5w30hbqbEFL60+EHcpuYfEPeYo2W5bfVT/he+/HoYn23i5r/871cbx7gVxu8ff/b/Dq83nZv4GfGNDx7UVRM37JJQnuehBuPzc1/6w1uLG2JDPPl6rySPAwL0tmuS7BeKmwaemrhhMcoLEkkvL8DbEhQL9lTy/qlf+d1hAY7EUcKi+H3/6UtDGRavnBCo8x/9xxfj0YJIQpsSM76yQOPXJihHmam6WKhJ4rX+5x9OktT4bchU0mKh/uf/9Svj0QLK1pImCWsK+vSDP/vV8WjBdRIJsSa+1EO/auNBciO+xH5qTCMpbpoTQHu12GVoLwRkCfdF8q1dB/rAONT6AnHf+S/+1mQZYB7QDnFhrPh6KuA4xppxZq4GjAf1xivjx5xnflBfCbGf6ksQbTBHpuZwjAHjX4qRGDfaodwUUQeG74wF73N9iDZiwbnoZ0k8k8SJZ4EYls9UiwAF6mc9qM1r4oovGH5um38lU8+n9E0IbsVNA09N3LBIsPizkAGLWCyKLHhc37RVn8uXxDWMhT8nDRZhFjEWKhZ0Fi/exyLE4sxxhno4R71TRFJkQS4XtFhkucYiuqkuHhrKUV+5kOZPqNxPPVNJi7jmhAEkAPoL3IeREMr+ZqiD6znWZXn8JCHySbz8GjDiGfXU+h19jb7nRE7ssBgDyk0JIMYzBBQCtUxWjAtGMiz7FFA/17DoC+3TD8QG8aN+rlGmhDqjj7yG8KiR28JybIgDiZtY8FrGn7LMpYhrNnxlRyOgDOc2QX08bzwr5TMTxBggBqgzYA6F78wDxiCTn4eoI+qJY+pjXCnLPIgy+MJr+B/jwL0xBow1r+V6wfqy6QNJEDGMtSgTz1ysGRwD8Zmah5yP+OFjiFTpg3L9rsFcYO4qbhp4SuKGBYKFiEUlFgsWRxYBJgzvSUC85kWEhS0WQK6xuNfgGvWwwDMJY3Gnft6TBDnPohgLaU76HOeFKxZgkswUkaion4U334+fLLRcD8NHwMdIwiRREgPXuYc6AZ8oFwk7YkQ5hGBYhn5RR/aD8pzn/vi0GomBhR0rE1MkF+6BiCnQZviBUV/0i2v4HfGMdsrrQD+JP/dH2fiKgLhhzIO4n2Mg1oAAwC+O8Td8jvgFJF6McrXrEOOIUY4xIebELfrKa9SRhQ/E2NAOMaYM84ZxwE/mHucj/tFW1BtE/ZHAI/6Q74m4ZuNe6qJNYsVxjjc+B8Q1nifujdhxD3Af5YlL+JSvA75xLsYIo+1IEtTJe5758jmIGFEGHziOPmfjPuJHuzFG2Z+wgDqoj1fuxcfwJ3xH+DAeeW7yDFA21grGLosbjH5SNo9JkNewiEc83xliGv7cB/dZd4Z2trWV59sUzBeemSmIaeSK+wY/WE+mwBfGlfmhuGlgH8QNi07tgc/EgsSiw6LChOXhiIWNpMZ7yrHgkWx5T/LjvkgMUQ9tUleG+znPwkQZjIU1L1BhuUxOxvgVixL1cQ5/oy18ZnFkMcTnWKTxC6MeysRiHkkjjMSGT9yHkKO9EA5h9AFYgKO/3MNrHOMj5eLBp00W1Uic1B8Ch2P6wgLM+2zRx4g598RDjIXooS2OiQNt1hJ0xJBrUW8YfhMz2iE2xD/GNhv3Ae1SJuLLfVi0QX+JAWXKGOMrCyvtUIZX6o1yvHKeuNMfXktfiD1luB735T5n/0M44XPpS3lcs+gzxPiGxXNFf/L5KSNe+E09GD7zSgyYb1EXc7o2HygLjHF8GCiNa4xDzFv6Hde4n7lKGY7xhddyvpTijOOpWNEO1/MzWxp9YRx4n+ce/lAvcIxo41xun3qjv+E3xjzK8yIEEX1i/sXzxRhxnnox5gzl8buE+vCTdu4D6icWEP5lsrjCz1KAlMdTEJtNogQYc+ZJkP3BB9pirhB/ynFMzLIPMX94rfUnYGxadutqRDzoU6wd2W984jjWRfp1+i9/SHGzjX0QNzyoJC4m2BSxQIRxDwsxE5uFIRabvOhkKxdHFhFes6gqEypGfXnxrRkPDpOa95FMaws7i0EkiyhXGv3iQahdKy0W87LPtMGDms9Ff8MoE8mURabmD9diccBqsS1jQ5kyyfBwR3yw0pc4F4LuNkY/auMYlsdpalwZp6hjaj5xfVM7xIB6pu7HtrXRavQlFvQytsQU8u7INsOf8nkJY15H8i3HGaN9fNk2nq19rs2V69omUVOzUmzxGkIui5cwYoXwIx5lv/Jx+MErcaSu8tnA4h5eWZ9I4AH3RPm8dt0W6qQ+6ueZB94zbxhvRB0gfphvlCU2OYkD15nXJPyaOKO+WBtpE5gvIRAylKGugHgAIoX3tJXHI+IbeYQ68zPK+ES8Ad/jfZQh1ptEUB6LAB9iXJgLlIl6AR+IFxbt/MCP/JjiZhv7Im5iYmTVzSRhS5nJFpMijIWztrhe12iTh5m27mIhDWMBqJ3fZtxX+0R8W5tKVmFTfb9uYqgZbedF/iGNecbrXfizTfRui/ldzN9seSEPwwfG9q7iv61PtLOtTE/WuibcJL5xz6Z4MV+ZZ6xRrI0IjZjDWAkfVDYl5ylYg5k/PO9Z3PCe8+wyIxY4R7v4jsWOBPcRq1gv4vdpAT6zZuf1JNriGkIF4UNdwIddytA2RLvxNSnvaX9KQLOO1q7RJjGkftrF56gb4ziECM8n1xBEHMfOXgi6eI374nlmvKibe0Lo07fczj/4t/9TcbON3sUNEw2LiUhiZ+IxMZjYnN+nxfKx2k0W5x7NuaRdxx76uSBR4gPzNnzJIjZ2PBAJiBrKs4aGCOCVXdwoR5LlPeW5HrsmOfGSxKmDutgFCRERgiUbazflyvNhCAPqrj13IQayWEN84GOUR6TkdkM4xPF1LX+gQHTka3GO+ssPp3ke0Cf6ja9T4ir8pxyv1Xkkm+lV3PDAxaRnksRkYPJhTJra5NM0TdMWxrpZrpOsn+yEsK6SVLmOWAHeI3gox3uuk4CryXduN92BzhZr+5TdRRs3sZpfxGFn/shm/tmn/sVSlbPjcZMtyfsmPh3E97a1r5k0TdO0u7G8mxLiJ8RMnNce2GQz3/+jP7381TnblXydE8R3gvcJnwj4pMBWYg228PCLhwqlzJZf3gLVNE3TtCdnspl/+G/+x/JHV7xi7JQgOlDqED8QK4lyJfyIl12W2BHifey6AEKG3Zf41TuGwOEcW5x8Rxq+xKcGTdM0TdNGk838/X/3v4ZdEb5jjW1HhAa7JLwPcYEgYScH4RKwy0M57s2EKIl6eI+Q4WsvRE60sTZYmqZpmqZtN9kM4qYauMIQKSFW+LEuOywhfBAr/Ck0xldc/BCtvD8s7tE0TdM07YYmm2kVN5qmaZqmPRKTzShuNE3TNK0ze3oczU7OzoZ/WOvs7GR2dHCwMQiKG03TNE3rzJ4aRydns9Pjw6HjvD87OVLcaJqmado+2dOCXZvT2fHhuFtzeDw73bJ7o7jRNE3TtM7sSbEmZgqxU0Fxo2mapmmd2ZNCcaNpmqZp+29PCsWNpmmapu2/PSkUN5qmaZq2//a08AfFmqZpmrb39tTIf/7tn4JrmqZp2h7a04PdG/8jfpqmaZq2tyabuYm4yf9aeNhPfv6j4V8Dz+emjPtr5zVN0zRNazDZDOImiw3+5e+VAI7n+FfAef3sF39/EDZf/9O/mf3gz3519vzXvzGU+fzX/mT27e9+byjHvxzOOerF+JfCf+KXf2f5L4nzr4ZTZpMYijo0TdM0TStMNoO4+Y2v//nsZ37t94bdl1/66h8NwoVzvP/hn//N4TwgXjCETOaPv/V347vZ7A/+4tuzF9/4y9mHr781vCKAuM59f/W33x3EEa8B7TJQtEF57qd+3teElqZpmqY9eZPN/JMf+tejzJgNogMRkuE4i5frUtZXwnV2aWrgD2LnK6/+ehhMdnpC8Ch8NE3TtCdrshl+ePzQ5J2cKdgJitf4eqw64JqmadqNjZ8OxPrq7yMfsclmHoO4uS48eHx1FYNcPoA8nD6UmqZp0xa/n+R9vLKL/gtffr3cLacMHyh5H7+Z5H3YT/3K785+9bf/bPgdJceb1t2pa5t+e8nPGmrnw/Cpdn6T0Ud+blG71ov9vX//RcXNNnoUN8DXVfxeh9/m8BpfU/GQ8QNmfsPDcUz+2tdY2x4cTdPu1srkqO3eYgxYQxEn57/4W8MfhrB2ImzipwSImthVR8BACBHKIXziJwv8RpPz8QcmrLeICOrmPcKG33ByLRvnWK/jHl6zCKLdeI+x3lNvrOvczznqoK1cNiyv8/j3c1/6w2V+uK7Rdn7Nxgdu6uePZ8p5TnliR99CCOZr+TjupRwijONSjH3/j/604mYbvYqbDJMqJjYPHMTk5RgrPx1wzINbm6TZtl3HeACnPkFs+iQT1tIGRl0t9d2VxUO2qzZrAvSubZfx22QtflAmksW+WP6Urz2MhSCAbb+JLEHEMC9LqCf+0ATxwM5PrL2sxYgh/lCF9kOwkLCBexEgMS9CwFAPazTrAoKBeiD+aIUPtdn/EDmUz+t9tEcd9B2oK9bdeBbxMe4p1+Q4xifeUxajnRAetJ/zTYgS+hWCCjFJbHiuKUPbIe4iZ+Ev5+h71BP9CV9/4Ed+THGzjX0QN8AnCCZHPLQ8ADwwTDSIyREWk5zJxnE5meNcPBjY1E5PUBM4MTljUoZgyIkcYVbeW0sAeZJPWTzc+L5NLIQvpXEv7RA7jiNGNQt/omw26s+fOCIG2eKv5agnFr/SaveVRl+jral+c37q013YVEzCuN7iT/RrKpFHO1O+cj3mc+36XVnMk9r4ZQs/twmTeI4YzxzriBn94dnL5+7D7rPuTTY1nhGXsNK/qQ9H2UjO5bmYR5vmbfaJcWFtvA2tf2DCnMKYx4w57eInxPzO4BtxoX6ux1rOvWXZTcTvM1kPqCdEQvgBvHKdcYnYxbPGs5t/9oAxPtQBpSBk3cJv7o8+M/d5Ze0Mf3L7QD9pi7gglDgOgRhQD/7RNj5QJ+/J22MKlyn2RdzUYBLEA4JyZpJyjgkV261MVCYWE4eJmBcdJiLX8zETjcWCOvgUw2QLmLxZAFEX7XE+kh2v1BHHGG2g5pnI1EkC4TXXFQ9hbP9i1JEfwvCF9uJhLBfVbDzc4WM+T730lYeOY+olfrEIhOEfDyR+E898DUMYRh1Y3J/7TjvxwOay2eI+ykwlV/oc/Sj7g/FJiVix0DAniEstNviTj8sy+BqLYIipKIOf8T7K1JIW/oWPtYSFEbvwlWNiXfOXOYvPtMP1nMhyeUQv5UqBzvkckzz/MfyMucS41WKbLT6FUh/zOsaOBMB7zvOeceQ4z4XSiG+ZZEorxQTH+Mh4MyfytWy5H/jBHK6N1TZj/GiLdulTxJf6I57MGWJMX8PfiAtGPyGPDffE+zCg3vCT8vGBoOxrxIH38Xxhu4Sxpt/4FkmbY6D/PO8Z5k6cY50LEcGzQOyuC/2lnQA/eAaA14gJhq+0TZnwAX9ifSTOrIFT5DroI69RT0B9rPPXAT+ZV9Qfx/iouGngqYgbHi4Wm22TKy8w8SDwnglGXfFQ1GDSxS4HD0V+mJjYtM9CE+cpx0I1BeXCF9rnXogEEseRZDPciyE6QtjRFu8jYeArwi7vTmFRLw8nx1wHXuk7MaKuKBdQd/4aBaIOjD7wWgpG4kq9lCVGvI/r+MfCxiKFkIr6SEa8RrIgJhjl8C2PI5YXGmJCGeJDW+EX9+AbPkS99DHXE33OcYsxpy4M36iHfuE7bRGX8InztE28eB91h1EuCPFIvZEQmVtheayoD5/wn3K0i/GediDHlvsDrkc7cR3jHL5GOxH3aCNbzBPex3NGfcQK8hgwVsxbxgKLOU1b+EXc8IlrMRYYMchtU0f2mXvwFaMu4l4TkPH8xXvgnlxmk0W7tEe/ImlzjvkAEc9MtMv99JNXykHMcxI7RFvEj1egLLHlOI8pfWXekIRD2ADlaBMfQ2DsGuZwCeMd4uW+oM8x9wA/ok1iQozwg9jVoAzjEeOzCeqK8bhL8JcxjX7gE/4qbhrYZ3HDwh6LDtQeshImDhOahYKJBDwkMXnjoagRDw8Lav7kAbxn8ed+JivHLDxTDxZQljIYiSuSQ5yPhIM/HGdYyKLv3MdCGskHcnmuRzvUFeXwcWpBxO9ov4S4E0MgOfGeurmHvkNOuljElPeUI/4Y9+Nf1Ae0y3kSA2Vyv6g/+k1d0XbELsN1zjNWJCRiDNRN37kOxCBEW9lnfKUs7XCNslPzDL/Cd16pn3MkI/ym/RiDDD5G4qOvvNIuPlFXCdepi7pZvBn7iEnMFYz7M/gd4xLlOJfHmlfO0wb18j7ERsQrxhhirm8j5iDQdtQF0SaGUGG86A+vGG1kHyKu+M2zQt1cD3+xeP6wiA3tMJ84l8uGcS7iMgXjE2NCfcQzQ7v4jE8Y5PmSY8V1xpFzjD9E3XEv0E8s5g1zMN7ja0v8nxrMGeYGsak9Q0AZxmrqec5Qbhdxpg38Udw0sM/i5iaw0DHZSXY5acaCywMRC8dtYeFhUZqCiRyf2vJiVoob6ti04EK+H3J5HhYW7nIh3gSxKOsM8CeEAoS/ua/cH/7Tz5wQ6XO5wxYJqIQ6pvwAkjA7My0L1CbwN8e8hPmCkLgu+I6PwLyjjan5RTn84JVkl2Oc4XrEhNjmRZfYImooM+VvzI2oP54JoP9c537GDD+ILefw7aZQf/SberPP+BltTiUi7i19YL4x94B7Y9cJgxjTgJhhiGbKR1mEETGj76wJ+Z5N4PfUGN0lzD36GX2lXxHLvIbJ/qC4aUBx0wYLFYs4C0d8irotLJKbxA2w2FIuL/YsYizAkfBDPFyHsjx1bPOllZxUIJLg1C7QfUKSikR/GyIRTombUkRchyzcal9lBPQF0cfuwqa2WvqMyJkSfJvmEv1n7pW7Ptedf9eBvhKTLFxKQtxkUUzSjzlHTEKYZF9rfjN3Q9wgbPhUnqndU+Om8+G6lO1kcSP7ieKmAcXNw8EiuU1QkIDYeciwgGehwGJ8nV0XKBdoFsSpxH1dSnHzkNyFsAHiQ1Kf2jm4K/B3SgRGct+WNG8r6DbdyxwphQ20Jvybkr/uqUEyL+OWy4eARBjmDyc1v0PcYLUdQwTPY4YPEwg72V8UNw0obh4OdoPuYreExaz8dLmNTZ+Cb8tjEjd3BfFq+WHhY+C24mYTiJuaCEY0PCTxQ9ttlMKw5ncWNzXuW+CKbENx04Di5uHg0+hd7ZY8JhBtLYmmN277u51dcZ/iBpFX2814aO5ScPBcshM0JW5EHhrFTQOKG5H94j7FzVMBsXTd3VCRXaG4aUBxI7JfsHO2qx+zisjuUdw0oLgRERHpB8VNA4obERGRflDcNKC4ERER6QfFTQOKGxERkX5Q3DSguBEREekHxU0DihsREZF+UNw0oLgRERHpB8VNA4obERGRflDcNKC4ERER6QfFTQOKGxERkX5Q3DSguBEREekHxU0DihsREZF+UNw0oLgRERHpB8VNA4obERGRflDcNKC4ERER6QfFTQOKGxERkX5Q3DSguBEREekHxU0DihsREZF+UNw0oLgRERHpB8VNA4obERGRflDcNKC4ERER6QfFTQOKGxERkX5Q3DSguBEREekHxU0DihsREZF+UNw0oLgRERHpB8VNA4obERGRflDcNKC4ERER6Yf9FDeHx7PTecfo3NnZ6ez48CB18mh2srx2Mjs6yNfqKG5ERET6YQ/FzUK8nByNouXoZEXEHJ2czU6PD5fvz06OFDciIiJ7xP6JG8TM6fHscLkjg9iJ3Zv8fs6ww7N990ZxIyIi0g97uHNTkgTNmpgpxM4EBOnly5cr9vr16zGEIiIi8lB88sknazl678XN8NVT7OTcQtw8e/ZsxZ4/fz6GVURERB6Kt99+ey1H77W4OTw+nXdw09dQ7eJGRERE+qB7cbMQMOt//bQmbEBxIyIisvd0L25qVIXNQCFm/EGxiIjI3rF/4mYQLNO7MfnPv/1TcBERkf1j78TNIFjmnSpt+d+9GXZv4vz2XRugrIiIiPQBeXtM4TKF4kZERKQfFDcNKG5ERET6QXHTgOJGRESkHxQ3DShuRERE+kFx04DiRkREpB8UNw0obkRERPpBcdOA4kZERKQfFDcNKG5ERET6QXHTgOJGRESkHxQ3DShuRERE+kFx04DiRkREpB8UNw0obkRERPpBcdOA4kZERKQfFDcNKG5ERET6QXHTgOJGRESkHxQ3DShuRERE+kFx04DiRkREpB8UNw0obkRERPpBcdOA4kZERKQfFDcNPDpx8+pydn5+OXs1Ht4XLy4OmByDnV8uWnt1eb48t7SLF8O1dV7NLs8vZutX18/X2loj95v32QesFpMXF6tlwtfa/QejT9eJ7y7G4sZt3G3889ivl6m0lWOf/M9tYdXpk/tcG6taPGpjXbuXcd7FuInIg6G4aeBJihsSxbINElctCb2YXYQgWINrYyIZzyyonG9qa06Z8IoYkDRXk+66f8sylfuH5B0Jsbg2yS7G4kZt3Cb+57N17TL3YXlPWaZS51D+qgxxX4zpRP0luc+V/jeP9cXF2r3DOM99uPdxE5EHQ3HTQFfiZkgqJJq55TLp/Pnl5VoiKCEB5ORRHsN6gglIYNRfJpz6+Y1tZb9zoqomvCJpbotTeS3ObbqvZLLsoo8X8xgNY1HGm/vGfuVxGhJv9DfHIMoM920TB9eL/ypcW69/eowm6pwLplz+inm5qdimmNzZWNfORztTfohI9yhuGuhH3JBorhb91QR0tRuySKBjIiq38mPRr+ymrHz9NOlDZiqJrifCelsVv6NcJKgVqyfluL6SbCv+D2VprKlvI5Nl6WPh+zJ+E+OU66q9L9uaGrvxcnP8RyJWNVGy9DGg7WV/YLVOyl/MRfSagKMPcS6fn///vYx1GbM5i7rn/SnOi8j+oLhpoB9xs0ioc5evbMgWZTKbSnqrsDOzqGeeSC5Xk9lasqsy1c76+WpbZT/z8VTSWkm4q0QbQxHujxgtbfRpMr4VJstuijnvi7bD7xW/kj/D8XpC30x7/K9YiIxybNfGu0HcZKG13OUbBNlVueX5Mo75uBLj5rHOAmtp8/YrdYrI/qC4aaAvcdOSzNLx1k//C1aT2+rOwzSt/qyybOuaCW/oy4aENxBlNiW3TddKJsvO+7hyPvd5ov/UFefL99RVtrV17G4e/zKOq+O/flzWuXZ9amymxiMfl9egdayndmhqdYrI3qC4aaAfcbO6tb/8VFycH5LXhuQ2sJI8SFxJzDQnhsbkOtnWlq8qCh+qCbX0c35uKLOpD9dJfJNl6Ufh+7KPE+OU4rAyRqmNtT5upC3+m3xbgg/Le/IYBUVbK+Xp2qKPtbYW/bmnsa78oHhgctxEZB9Q3DTwKMXN1Cf2fG1l8V4k2+H8fMGvJ71VYmsfW0l2KQlfUUuktXOwfn6yrdSftR+ZjueXVklWQ5LMZa6y53Rym6y70p8tZa/3g2LuWZw7v3xxlfhXfEUEtH49dbP4X43tarkcy3WBVWmLebJW51Rbc1JM7mysV2KXaKxTRPpEcdPAoxM3t2Yq6ck2Xl1eNsbNGIuIPBSKmwYUN7Lg1ezysjVqxlhE5KFQ3DSwf+JGRERkf1HcNKC4ERER6QfFTQOKGxERkX5Q3DSguBEREekHxU0DihsREZF+UNw0oLgRERHpB8VNA4obERGRflDcNKC4ERER6QfFTQOKGxERkX5Q3DSguBEREekHxU0DihsREZF+UNw0oLgRERHpB8VNA4obERGRflDcNKC4ERER6QfFTQOKGxERkX5Q3DSguBEREekHxU0DPYqbt956a3zXB9/5zndmb7/99njUB5988sns3XffHY/64PXr17P33ntvPOqDDz/8cPaFL3xhPOqDly9fzj744IPxqA+IMbHuic997nOzjz/+eDzqA9YM1o6eeOedd2bf/OY3x6M+2G9xc3g8Oz07nR0fHqROHs1O5p2m42dnJ7Ojg3ytTo/ipjefSbpvvvnmeNQHJLBnz56NR33Qo8/vv//+7Pnz5+NRH5AMsJ4gxsS6J3r0meeP57AnWJtZo3tir8XN0QkCZlXccO70+HA4Hq6fHCluHgGKm92guNkNipvdoLjZDYqbx8TRyezs9LTYuWHXJh0POzvbd28UN/eP4mY3KG52g+JmNyhudoPi5tGAiJmLlvJrqTUxU4idCRQ394/iZjcobnaD4mY3KG52g+LmkXB4fLr46umOxM0bb7wxBCpb7ZymaZqmaQ9v5Ogxhe8JCJjT49khAuaOxI2IiIjIzmCX5kqtncxOTs5mJ0dZzChuREREpFsQK6tbU0sb/iqqEDNrYkdERETkMVPu3MzJf/7d+qfgIiIiIo+DirhZ3d1x10ZERERERERERERERERERERERERERERERERERERERERERERERERERERERERERERERERERERERERERERERERERERERERERERERERERERERERERERERERERERERERERERERJ4UBwf/H83DMq23zRRNAAAAAElFTkSuQmCC;" vertex="1" parent="1">
          <mxGeometry x="110" y="43" width="567" height="265" as="geometry" />
        </mxCell>
        <mxCell id="5ZlzFRV1RBMYGkfswWvm-2" value="" style="shape=image;verticalLabelPosition=bottom;labelBackgroundColor=#ffffff;verticalAlign=top;aspect=fixed;imageAspect=0;image=data:image/png,iVBORw0KGgoAAAANSUhEUgAAAjcAAAEJCAYAAABosAbuAAAAAXNSR0IArs4c6QAAAARnQU1BAACxjwv8YQUAAAAJcEhZcwAADsMAAA7DAcdvqGQAAChiSURBVHhe7Z1NiGXZmpZTUBACRGMSTgIkkKi+iNADBw6tWQ514MVJgkO9PVAkkYIe9KQLHZSIJSglgRYIt0Es2sGVbqiWpJGmyUb6ikq1SJcmkvhX/t0G7StNczzPPvs98Z0V+8RZERkRFSvyeWBlnL32+vnWt36+9+wTeeKZiIiIiIiIiIiIiIiIiIiIiIiIiIiIiIiIiIiIiIiIiIiIiIiIiIiIPFaOTlZn52erk6NnqzlnzfHq9Px8dT6l09Xxs3pPRERE5BFzfIqA2RU35J2dHE3X0/3TY8WNiIiIDMDx6er87Kx5csNTm3I9Pdnx6Y2IiIg8ehAxa9HSfix1Rcw0YkdERETkMXJ0crb56OkOxM13vvOd+fdzLtMHH3xwJc9kMplMJtOjSL87h/AnBALm7GR1hIC5A3GDo0ZjNJvfvn27+vDDD+erMXj9+vXqxYsX89UYjGjzF198sfroo4/mqzH49NNPpzQS+Bhfj8SINrP/2IcjwdnMGT0SxMA5hD8d+CXh0+MqZhQ3jx3FzcOguHkYFDcPg+LmYVDcPAoQK4uPqOb/FdWImSti5yrUHY3RbFbcPAyKm4dBcfMwKG4eBsXNY6R9crOm/vfvnv8Krri5fxQ3D4Pi5mFQ3DwMipuHQXHzGFkQN7tPd65/agMjipvRhMI333yz+u53vztfjcFXX321+t73vjdfjcGINn/55Zerjz/+eL4ag88//3xKI4GP8fVIjGgz+499OBKczZzRI/H0xc0dMKK4EREReV9R3HSguBERERkHxU0HihsREZFxUNx0oLgREREZB8VNB4obERGRcVDcdKC4ERERGQfFTQeKGxERkXFQ3HSguBERERkHxU0HihsREZFxUNx0oLgREREZB8VNB4obERGRcVDcdKC4ERERGQfFTQeKGxERkXFQ3HSguBERERkHxU0HihsREZFxUNx0oLgREREZB8VNB4obERGRcVDcdKC4ERERGQfFTQeKGxERkXFQ3HQwpLh5c7F6/uzZ6uWr+Xri1erls5frf++eVy+fsZC26fnFm/nOA8BYn1+s3rnH2/rsrvp/9XLHh88mQ9b930XblbuyV0TkkaK46WBYcfP8eRPE7kfcTMJmRxG8WV08f2CBcxc8oM+ucrUf/Pr85UuFiIjIDVHcdDCuuLlYvbpYB+utyGgCKGW2Twqa/OcvVy/XAmVzr32aUZj7uRJ8yS+V3qztSFtbe3hSUeoSzDdVNuLoat978hsbFvvqGdPczo19tu3/GvtSZyq3IJi2bVRKe7NdaXtj37qddf7F/NSMvO0TtKnzTT8vk9faO/3c45Ni8/OLi7t/eiQico8objoYWdxsAu7z1SZW16C6CZwJZpMguLzY/XimESE7cG9bcA9bW5rX+8RNLbPm1ati16H8614fGtO2/A19lnq1vzUb+2pbmzqXwmmX/aKsaXv7GttiT/sam2ve3H5rb7l/6ZOFcaZvEZEBUNx0MLa4qa9LoK73YQp05d42oK9py1YacVMD9E5AnNqc89P2PnEz2Um5S1GwYU/+4liavnrGVPO2rzt8tlO2tS95JRV/7SNPYF5eNDZt28GmYtvi65oH83Xsjf3z3e34tuOZaa9FRB45ipsOhhc30+XztXAowe66AHbNve3HHgReGmrLhra92m9e7xU3M1PZdV9t+21+T1+1DLTX0OR1+2wpf2tfKzBuwOSf+XeApjbbcdW2l16vf1a7kn+d3dflz5ciIo8dxU0HT0HcbAIboiQB8MDHUjcIbpPgaZ5G7HyUUZ7ubJ7szDbQ7k5AbsTNRAJ1S8mv9l3X16ExXcnr9NlSW1v7duvgq8WPpRqhN7HO2/5C8eK4qm+WXm/s32vvXp/4sZSIjI3ipoOnIW7WECC3AXANZabgXQP4mr1Bbz+bgJu21mmn/CbIkv/84tUUOBPgL58EvVxdrNvYxN7dtnaC7EL+rn17+uoZ01Jej8/mevUXfq/Yl/yp/SpELrniw6mBeTw8wZnzL8d1Udqpbeb15uf1v1C8xyfFZv/HloiMhuKmgyHFjchW5Lwj5amRiMgIKG46UNzImNxW3Gw+llov/TndgUASEXlAFDcdKG5ERETGQXHTgeJGRERkHBQ3HShuRERExkFx04HiRkREZBwUNx0obkRERMZBcdOB4kZERGQcFDcdKG5ERETGQXHTgeJGRERkHBQ3HShuRERExkFx04HiRkREZBwUNx0obkRERMZBcdOB4kZERGQcFDcdKG5ERETGQXHTgeJGRERkHBQ3HShuRERExkFx04HiRkREZBwUNx0obkRERMZBcdOB4kZERGQcnq64OTpZna0HxwDPz89WJ0fPykCPV6fbe6er42f13lUUNyIiIuPwRMXNRrycHs+i5fh0R8Qcn56vzk6Otq/PT48VNyIiIk+EpyluEDNnJ6uj7RMZxE6e3tTXa6YnPNc/vVHciIiIjMMTfXLTUgTNFTHTiJ0FcNKLFy920scffzy7UERERL4tPvvssysx+r0QN9NHT3mSc0tx8/r165301VdfzW4VERGRb4uvv/76Sox+8uLm6ORsPcjrPobqEzciIiIyBk9a3FwRNqC4ERERedI8WXGzKGwmGjHjLxSLiIg8KZ6muJkEy/6nMfW/f/tfwUVERJ4WT1LcTIJlPbA2bb/3Znp6k/zrn9oA5URERGQMiNtzCJd9KG5ERETGQXHTgeJGRERkHBQ3HShuRERExkFx04HiRkREZBwUNx0obkRERMZBcdOB4kZERGQcFDcdKG5ERETGQXHTgeJGRERkHBQ3HShuRERExkFx04HiRkREZBwUNx0obkRERMZBcdOB4kZERGQcFDcdKG5ERETGQXHTgeJGRERkHBQ3HShuRERExkFx04HiRkREZBwUNx0obkRERMZBcdOB4kZERGQcFDcdKG5ERETGQXHTgeJGRERkHBQ3HShuRERExkFx04HiRkREZBwUNx0obkRERMZBcdOB4kZERGQcFDcdKG5ERETGQXHTgeJGRERkHBQ3HShuRERExkFx04HiRkREZBwUNx0obkRERMZBcdOB4kZERGQcFDcdKG5ERETGQXHTgeJGRERkHBQ3HShuRERExkFx04HiRkREZBwUNx0obkTG5o/87K/Mr0TkfUBx04HiRmRsnv2Vfza/EpH3AcVNB4obkbvlf/3f35lf3Yz/8D9+e351MxQ3Iu8XipsOWnHzM7/47+dXG3749rdWr37zf85XG/7ur7xd/eff+n/z1Wr127/zu6uf+/X/Ml89TX7jv/6f1S/8xn+fr0Q2IuZP//1/NV9tYB/8hX/8b+erDeyPQ7DH/tTf+fX56mb0iJu//E/+3a3Fk4g8LhQ3HbTipj0oETscjBUO4Sp4ODTbz/05+Nt3sL/65n93HfRLZdq89pq2P/qnvzlfvRvY3Y75H/zaf1r9+Z/7ar56NxBKrRhcGvNtnwC8L7A278JHvcKVdV/7o0677pfWCWLn5//1f5uvNrRCg/30k3/j1+ar/VCuFVTs2b/5y/9xvtq8IWnLYDtvSirP/96/nMYeWIP1WkQeJ4qbDpbETQ28BJD2HSXX9bBeEjfU+4m//qs7T3ioVw9hqPeBdv/k3/oXO8GeOn/tl97MVxsIBLUuQeUP/vQvz1eX0FY9sAkOh97BLo1nKWjhpza40n59+sV9RFctty8AtmNs/YddBK7bUMUoVP9iWzsOIK/OM3UQkYc45N+Wtu92vQF21HYzRzWvLQPY3LbPemIOAq9ZT7Uuc1vHyj32Ri1DvXad0HY7t1zX/oC26pzwus2rcxRYE61/qFfXHDYs7dlaBrC9tWHJ9yKVdm/I/cK51p4fipsOqrghkHJQ1sOZA5G8etByANYyBFzK1AlIvXp4Ij5qMKC/3/9XX+0EH95dtvXor9bDlj/8M/98550ofbd2QnuA/7l/+G+uvEMmGNQyBLA2aNF+GwApw7vfCuWqbzgEsOtQ8KFOzYtvquChbfo89O6auq1Qqn7ARwTJCCVsawMf0F+1ifqt3S09ZSoIP+YkMLZ2Hlkf+B57An1Qrs7Hkojguv2YiLHWp3yUoS18ln7xF/4PETe1fV5TpgpObCCvilJsb5+a0FbrW/LqOuTpS7u+sAvBDtga2+v88bqdA66pW+G6PrGKDXWMjw38in11fdR5uwm3faNwV7Q2MzbybjOWlvsUH6yl+1gj7ZuQp8S7jI0zoD2fFTcdVHGTw60GZwIPeQkibECEBcEx7DtgyauHNdf1gF06TJfqUYe8kECDWMomjg21LRYUgaYe4EtBkes65n2BrM3DrlYoYX9tK/Wqb7hPXgU/49cExdhQg1TaQhxVCNTt0ynGXfOoF5+mnXx0EZvZRPXjDMZXAzz126CJnTWQL5WBWia+5xBnzPTDXJEf26o4y5qovl+aR+xvP07Er+2aY0x1jvAfbdU+subis8xH79xWu+LHesBRprWr9gcZY9Z4bEi91CFVG5jDfW3VwMl1FU9pr7bVQ+vz+wR7sTHzxHg4B9o1xzzUOWBM9Skkr1sf3RaeZCCgM7/7xEkb4Fj7Kcv+wGbmtoq1fSKFtlKG+a5tZx6rHfjirsRc9T/QXzu2m8L4l568A7499IbusdM+he+FtcA6qXuSufyjf+wnFTeH+EN/5qe3CzOboga4HIoRCCnDYZ3DI4d8fTfMZJBXD4/UC2mrvrOu9UjYlkDDa1IOeVI2WWyoGyTtV7synhqk2mvEA3n10I5d/Iy/Yldg8TK+CD/6TeCsbe0LgOTFXxkjbaW/jJF37vTFoUp5xsSc8Zp6GXeCIHCdMaYdEm1kbG2d2FTnHv/GRqDvNkC2gQbbahl8FHtpnzZ5soEQiW28xjaovg+Zx3pgJ4+2ko+vaB//47O0jz0EOMplPkjYRVDI2PE//eaJEtcJGmkLgRvfpq265tJWxgNck9JWfJF2IOPBF5CngIyHNZE6pKyvpb0BHJDk1TXHdZ2rtFf9nLUXqn2BOodgDdVg2wt1YgNzhf/r2DLeum4p165TrqvtmbtaBv+2T9hYI9UHrKF6PkLmlzXCPOBr1h1+xD7yabvugawn5hYbWENph3KknB30x+usTc5LXucNAPXqGZp5rHONLZRr55OytdyhAJw1yDixifrYkv2FTTmbsJVEHfxBmTqfwD3KZqytfcAapS525o1dzqS6/2Gp/m2oPrkL8P1N28S3WRP1PGEd/76/+I8UN4fASXFcNgWJBcd1DtgE7FqGA4KFnAOdiQAWHJsz7YTUY0GzIXLAUJ887GATkscm4SftZIKzqVkkXKcupC1SNmjaygHOBsshT7tsNOCagJsNk3pZkGyYHKok7kPsyqKNbzhIaZt+4z/6pn02KQcZeRxs5DN26pCXzVvHmP7qGBkHNuEP+sg17cd+Em2nPxKHd71Pm3VstBOfxqb4Cv9zHXuAvvFdfJ53xHmXHKFIW4FrEuPP6/gpY4xvCQKxlzYS6FMe2/F7zUvCN/UaO0k1jzpZv0lcp/+kuu5pl/HW+aA81LZy8Kat+C2BjZQAxdrgmjHSNmuuzhv+jG9J2FOvScxRtYn9hA3VD9jCGmBfck1/+IC2YjvzjY2kzBv9ZU1mXNRJXu7zk/tVJDAe2qlnAXWxi/nM/sE/6Q/wAes566v6lrVIvfiNlECZctnPwHXmCHK+pAxjZe1jU2AclKG9XGc9V7Km6nyR6lrDx6xVYEx1LHmd8jmj2oRvMpeMhdf0ST551GP+aZ9r7uFf1kFdg4w1RIRBzjnaAHzDPepzj+u6Z0l1jNTFhvRPasdC39gS29py9EdftX/6oE72d+YA2/lJf6x95gcbWCs521mPuU891gzlsuZ4TaIvflI+/TAvXFOX9Yxd8QM/aZf7+IvrunYAO6oAzf5I30vQDz7Clurb2vZ2ncn1IG5YWExk3XA4lknORLOBWIwsnpTJxqqTwEaoC5oFxUFU62WzZaNSPxsiNmQCKVfbJ8WmJPrLBifRH+1sF8E6sRHadrAth3wSdtT2qZPNlJQDI9f0n7Ek0Te21zxsqHYmtXblAMo1ddgUrR1Jbf32uk3VhtbGJAJFXlMGn6TdHHaklCFYQeaROQDGkjLYnwOJVNdJUvUrCT/WNkgcGG07HBh1jfUm6rb1GG/rl4j1JPqvtlIe6h7iNT6Kv+mLdqoooQyHYF2rpHadtDbh53bNccjWtYuNre9ItNOukXa8pLRVhVDyM4b4gHGRnzXOWJlvxs/apQx94mvsrP5sfck1Pqm21/WXRB/Vb+0Y6As/VfsJTASrzBN2QGykTIJ71gX2APbEhgSbiKSeRNvt+ia143qIhP0RF9ljjLPez2vsW1oft0mHxsqc4qeb9ked+hr7WaMZI3ltu7xOqnXzOinrgHvY346B+5x35NNvBBRrlnvsAcbFWuQnNuFvYK2xT1gX2JG4Fbtroj3a3ebJ9UyPt2ZntZPG9dJkv2tiEu+j3ZumLNaatzTmJVvv2342wVL+Q6XrxseGbe/jNwJEzWfTsiFznUPipqmt184Z6b7n41DCJsbaztuSrTXlMF+6dyjVQzmp7X+pzE3T0hiSd8h27teguS+1dlOnCsW7SthDX1lTXBN0qo3k0Xe1iSBU7XmXeTM9TDq09+4rIXDq2ti3f1hDN7VxZ5+8fxyvTs/Pp9+mPj8/XR0/e3atE6q4MZnuMn1bh4vJZDI9+fS+cXx6vjo7OZoGzuvz02PFjclkMplMTym9X/DU5mx1cjQ/rTk6WZ0deHqjuDGZTCaTabD0XnFFzDRiZwHFjclkMplMg6X3CsWNyWQymUxPP71X3ELc/N6f+vllx5lMJpPJZHqc6b3CJzcmk8lkMj399H7hLxSbTCaTyfTk0/tG/e/f/lfwcVP7DZX58rGa95gS32nDt3TWPL70rP1ytHr/XVLb1mP4QjXmp52j235xYU96DGPuSUtz1X4HUvtlg3fx5YPXpbb/9rqdt6UvaDQ93vRtfscW63vpG4bvPL1/8PTmZl/ix6bla8TrV24nZZPzldB8dfl1i4Z7lG+/Sn4p1YOCem1gzIFIe+03nC7ZcGgxL93HzmorZeir+oH++XbSekDzjabtgX2o/5sk2t75mu114s8x7PvzC9el1q6eA/rQWPJV4/Ur9Pl2Ysg1m5uvua9/agC/1q+fX+qnnWt80fqa6/abj/mbLLVMT6J/Uts+gbW1jTmv160fsz/qt9jm69JrWdZS/ZMf9MXXteeahD2Hgjv3q/+pw1e6t/uqZ773lUl+flY/xb7s25TJnyigLD+5344PP9XDvy1DW1wv/amCmyTaYV7qfiaPtZI8rjn78ucXSKynag/jYP/VP0lCHuXatfPQCTuW8g8lbCct3auJeX7oMR4a03X3YyvzWffHdem68TH+6+IZdUk5t/iZP+kRO8njdfrhNWs7ZyN7IX+GgTOD+/vmZucckutB3LDZoW5wnM3BzGHFNRMA9e8JMYmUy+SnDIdFJpZJYhKz0Jhg6tQDhwkF/p5MJo+fJAJBAhltstion7okDqjYScIe+oxd1KGtGgApX//uDYm+IG3RHwsOajClf8aYxUrbVXhQjwVd/+4M9bPIk4e/aIPDnTEkn/7bgAB13PVgzYYgsGJLDQr4PQGIVOeiprrx6Ie5yD3miv4S0LiHfUB5EnnAGGkrf7gO8AP5QH7ajRCgfNqufsROgkrmIzYyhrp+sk5yTapjTsJP9aCiT9Z4FSSZt9iTtdXOB3l1fmkDalsRfGkLH0Jti3ag2st4oNrarh3mqK5dykJ8RcJHS3ulrjUSQbv2n7WOHfxMP1lX9MVe4jpjYV5ph5/kUxdfsMdSJn4gr84Xc0A95peUtcXcZ8x1TZPwJT4hJQ+7GFvmhXYh/dMWPoH4KXse4pfMW3yCGAPWOG2wLuPv5FE3/VOHRF91PZDa+SBl3LmmvYy7luEn404ZfrIXuJdrzpT4mcRcYm+1i7lhDrCd9rCJ+9nntJH5TMDFX7WNm6R63sRWbKS9zF9df/RbxxD/pH982voI3+dezmzGgO2Mi/uMm5+0TR794AfqUI5r/Jn2mHfuA/3jG/K4x5iwmTq8Bvqr0B+JfPqkbfyY9U0+17UetrDW696uifWasc4hXPZx9OJvT4cIxKE4OOQQYAOELLIcAtmwqcdk5TCq9VggTDIwwSnDwgrpj5+B+8mrhyWJNugvNjDxsStt1fFkM+VQY4NzHbsgAZayITaQMibqsMFoIwdBrUc+m4g8bMBubMqmpB02SxY/eYyHQ7mOMf7JGNlkwGZhLthc1f6U45DCBnyG7/FNvU/CZurHL3XMKUMgw56sjwq25DABbKr+XgKf4IO0R//xE2uRn3X+Yy++ybzRB3mMKf1n01Me6jgZF2PI4UVKHxxAXOND5oKU+U5bdT4ozxylfcaSMceuuqYztzkEa1v0BfFF3iBAbGDMlGOtpB7QDvPKdfqjHHNCXsbHGokN9ENKmbpu6n5hjKwbrhkr6xuwr84NRETsIzYRDNIfbWNz7R9/tm1jR3zC66zT+Dt+o63Wl/gH6Is5yvoHBBC+Y3+EBNjAPXxHe4GxZj4C97Gd+qzFzFvq8ZO1y1ixJWuWMuTRFus+6zBnAK9J2Ml4WbuMCX9Qlv6ANrhP25C61MvcUJd+SSkHGUd+Mo74FsiPuIPYTaJf9m1dS8xPxCW+4zU2pCz18Qe2MwbgmjLUxU7Ax4yTOtzH5viINhhHxkke5bEjsSwwh3WuoL3GFuwM1InfAnVSr66ZXhh/1kMP9JF1lJSzaJsv18PHV4EFVJ0IOfDqxOBcFm4mmfKUqZsi9epCoh6TXKEMmzmkrXrI0S55sasGh7BkQzZinkxB2sphDVzXoJK2sDekHuOOHWzGajuQV+ulrdTBx7EreYBfyAv4jcOJ/Gz4tFXngnLMQ83jNXbmcAc2f22Hwx5bgbGxwalT/U7/BOQchrSXAzXUg/ImYEPWG31iH37L3FbfMB7y6gGU+aiHEHnYHNIWhx4+r3kZO8Svtc+0n7zUw0cBf6Z9ykPq1TXHQUxebE1bpJAxVv/je/IytymTevgv+6yuuQjF2M4a4T55OfxjQ62X9jMWwPYKZah7U5i7NihgF/N+iPYMSTADbGHOq98yjmpnrQP4ro4zZI8E5rE3mGUv0Ea7Tzhv2rFiU11zrFHGUtuhHnPW2lVZmg/qVb+FpbwKfR+aX3yLnVk7rGt8HruB86X2RZm6V2vZ0NrG/Fy3PrATW8JSmz1Q75Bf3pWbihtgfAjLnCmBmPN7/tIvKm4OUcUN4MS64XJ41gXPos67UKA8i7ke6NRrhQz1lsTN0sFU85hcAkgWIIcNZUgBG7iuYoPy7aFA+/VAh/rOG6hDW7Vc3o1wAMUX1Km+gjaPDU29mhdbq20E2+pTwFfV76l3aJMsjbHCfQ7WtJNDdulwqXbfB9UPzGsOrPoODDvbcWMbeZUle/FrrZf2q3+o0wbxtJ/28A3Cpq7ftIX9dU20tmYPJUimHilkjHXdZx2mrZSp9YDrGkwpV8UbcJ91XqH9GrixizHWIPTYYN6qb4Hr+B943QbXEcDuiPDHTNbkdWdMryC8jp422rXwWMkT+ttS1zdn0h/4sz+ruDlEK244FGqAyMFcIdC3zm5FC/U46CtshnZD0HY90DlYKVPbp51aBuiv2hURUQVDL7RVNwl901YVSrTLu5W64QgYh955pq3qU17XJ0WwFJjxc90QGeOhDU2frb9uw5JNd02dQ+BdFE8eKoyHuai+iIioLNm79G6Otuo6pE67LmmLvVBFFuuk+hW7EAPVLu63c0RefeLDGqLtaj/lua7tJy9tMRaEaH2CBZTBlkD5djy0W9fzErTR7uPHBvuw5x36XQRXWYb9yVnU7lN5GDhvzv74n1DcHKIVN22ASEC9jqXgQB5tVShTD2+g7UOChHbaAx1xUO3iYD5k5z440Gtw4GBEyNSPrpboOWSXAiB5NfgBYzwklGiDJ1ht3fuix6Z35bZjwbZ2LZHXipsl8H8dFzYgGiqs+3Z+8zl/YD7adbm0F3g3vvRUrj7pxAbWb33njp2tXUu06562lsRN668WxnuojIh8+xC35xAu+zgkbuDQo1IO+TYQIFjag5kDt/5yGvQIEsRGFQfAdW2fQHBbcYNdrf1tf7eFdnsCVO87TWx9KHHzmN/94tNWFC8JkrukZ00gmtrft4C2LsKm5mE7wvU2IMQrPG1qbWAPj/CRh4gcRnHTQY+4uSs4+NuAeVd9vYu4GQkCFGOVx8ttBdZtBfV9CjoReXwobjpoxQ3viO/7o4j7gMDgI3UREXnqKG46aMXNbd89ioiIyP2juOmgFTciIiLyeFHcdKC4ERERGQfFTQeKGxERkXFQ3HSguBERERkHxU0HihsREZFxUNx0oLgREREZB8VNB4obERGRcVDcdKC4ERERGQfFTQeKGxERkXFQ3HSguBERERkHxU0HihsREZFxUNx0oLgREREZB8VNB4obERGRcVDcdKC4ERERGQfFTQeKGxERkXFQ3HSguBERERkHxU0HihsREZFxUNx0oLgREREZB8VNB4obERGRcVDcdKC4ERERGQfFTQeKGxERkXFQ3HSguBERERkHxU0HihsREZFxUNx0oLgREREZB8VNB4obERGRcVDcdKC4ERERGQfFTQeKGxERkXFQ3HSguBERERkHxU0HihsREZFxUNx0oLgREREZB8VNB4obERGRcVDcdKC4ERERGQfFTQeKGxERkXFQ3HSguBERERkHxU0HihsREZFxUNx0oLgREREZh6cpbo5OVmfrgTG48/Oz1cnRszLI49Xp9t7p6vhZvbeM4kZERGQcnqC42YiX0+NZtByf7oiY49Pz1dnJ0fb1+emx4kZEROQJ8fTEDWLm7GR1tH0ig9jJ05v6es30hOfw0xvFjYiIyDg8wSc3LUXQXBEzjdjZA056/fr1Tnr79u3sQhEREfm2+Oabb67E6CcvbqaPnvIk5x3EzYsXL3bSRx99NLtVREREvi0++eSTKzH6SYubo5Oz9QCv+xiqX9yIiIjIGAwvbjYC5ur/froibEBxIyIi8uQZXtwssShsJhox4y8Ui4iIPDmenriZBMv+pzH1v3/7X8FFRESeHk9O3EyCZT2oNm2/92Z6epP8w09tgLIiIiIyBsTtOYTLPhQ3IiIi46C46UBxIyIiMg6Kmw4UNyIiIuOguOlAcSMiIjIOipsOFDciIiLjoLjpQHEjIiIyDoqbDhQ3IiIi46C46UBxIyIiMg6Kmw4UNyIiIuOguOlAcSMiIjIOipsOFDciIiLjoLjpQHEjIiIyDoqbDhQ3IiIi46C46UBxIyIiMg6Kmw4UNyIiIuOguOlAcSMiIjIOipsOFDciIiLjoLjpQHEjIiIyDoqbDhQ3IiIi46C46eDRiZs3F6vnzy9Wb+bL++LVy2csjik9v7js7c3F88X8JaayL1/NV/vbXM5/s7p4vlx+h+oPXs/lt2nJV69e7paJjUv1n71cTXdv4veHmKNb94Ff5zHN7JvTml/nsbJvTsN1a4DErZ1+kpb6q2NemqveuV6qyzw/xLyJyL2juOngvRQ3BIRtHxuRMcWaKSgkMJL/fLVPc2wDSILUlTbnunvyd4Li1Naevqo/FnxDMN0Nuq9WL7dj2LAts1B/a8fCvb3cpOxtuVUfjH0O5HPO1M7SnO60X9ZAZd86CVPbZQ3U9vdydX62VJsWxt891y9fXqk7zfPatpv7VEQeG4qbDoYSNwkmpFqm5D+/uNgfPGY46Nt38Fzvy7/KHMQu1sHvSkQEgs5SkNuX3wTFOp4aqBYDXtPeIf+195J3Xb2WvWU3wfbl9ulFMw/Um8dV528KvBlvBlP7mOot+a2CD+lvN+DvndOdMSyLkuvXw9IaWPd9wIdXBErxyZ3N9VJ++jlgn4g8fhQ3HYwjbnYD0GWgIf/yHTX526DaPrLP4b7wjpwA1Qazqf6CeNmWW7i/6b8JYGv25U/sjHlhPLmXALWTloNy7u/0t+DbqSyd7fX7AnvLIiwa27f+2TN/ta2l121f++Z0vr2xYb+42Zkz2p7auOrDiT3rZLpKu4vtLdm1ph3L3OaOv3K/bWtKnXN9pZ+0vba5tUlEhkNx08E44mYTONcmX6YpKuwGs6vXy/AOetPOOmDM776vDYSh2rd0f2ITtHbamljIn4JYsbcdf71e8M0UtBZt2JBxTkWmvjLupLnvhbb3srfsdXOxb/7W7NhV7Jmu9wiPvezasHdOp/arbcv9LK2TnfHXNcDr0nf7lOaKLa0f63V7b033XF8wttidtLZroU0RGQ/FTQdjiZvLwHFJm1+up2DTHPILbSfotMHnSjBaMwWYts2FgLMvEO3kM9Z2TO346/WSb/YKrEIN6Iu+XXPdvZa9Zde+38mvc7Nn/mgr+e1r2mr7Ojinu/3sndMdv+0+VdpH6k5z2NqwNAeH+mjHVq/be9A71/ue0Cy1KSLDobjpYBxxs/sI//Jd8W7+JvAsBNHKTpAgGM5Bh763dUv+Pko7U7/bNi9t2pe/21dlYTzXBDzu7wiwKbg1/lvnTWWuC27X3WvZWxafNbYvjX3Ndv5aH7biZs7fGeO1NCKKdpbmdF9+Zd86qRxYA1u7F312T3O98AvFE4s2iMhoKG46eJTipn1XXA/8Nm9iE1Sn/PXBvviEoOHy44bL4AKbALvJvwwkTcAMO8Fvt81D+Tt5UyqBs4zzyi+Z7tRZp4VgVccwpcvouT+47W17YewHyt7sF4ov5+75xatLQbBjKyLggNDcctXe5Tndzb+crt36+9bJls410JbbUnxyZ3O947tCZ5si8rhR3HTw6MTNO7MQjOWdeHNx0elPfS8ict8objpQ3Mj1vFldXPR6U9+LiNw3ipsOnp64EREReboobjpQ3IiIiIyD4qYDxY2IiMg4KG46UNyIiIiMg+KmA8WNiIjIOChuOlDciIiIjIPipgPFjYiIyDgobjpQ3IiIiIyD4qYDxY2IiMg4KG46UNyIiIiMg+KmA8WNiIjIOChuOlDciIiIjIPipgPFjYiIyDgobjpQ3IiIiIyD4qYDxY2IiMg4KG46UNyIiIiMg+KmgxHFzccffzy/GoMf//jHq08++WS+GoNvvvlm9dlnn81XY/D27dvV559/Pl+NwQ9/+MPVD37wg/lqDF6/fr368ssv56sxwMf4eiS+//3vr77++uv5agw4Mzg7RuLTTz9d/ehHP5qvxuBpi5ujk9XZ+dnq5OhZGeTx6nQ9aAZ+fn66On5W7y0zorgZzWaC7ocffjhfjQEB7MWLF/PVGIxo8xdffLH66KOP5qsxIBiQRgIf4+uRGNFm9h/7cCQ4mzmjR+JJi5vjUwTMrrgh7+zkaLqe7p8eK24eAYqbh0Fx8zAobh4Gxc3DoLh5TByfrs7PzponNzy1KdfTk53DT28UN/eP4uZhUNw8DIqbh0Fx8zAobh4NiJi1aGk/lroiZhqxswfFzf2juHkYFDcPg+LmYVDcPAyKm0fC0cnZ5qOnOxI3H3zwweSompbyTCaTyWQyffuJGD2H8CcCAubsZHWEgLkjcSMiIiLyYPCU5lKtna5OT89Xp8dVzChuREREZFgQK7uPprZp+l9RjZi5InZEREREHjPtk5s19b9/9/5XcBEREZHHwYK42X2641MbERERERERERERERERERERERERERERERERERERERERERERERERERERERERERERERERERERERERERERERERERERERERERERERERERERERERERERERERERERERERERERERF5r3j27P8DqGO6m+RgmU8AAAAASUVORK5CYII=;" vertex="1" parent="1">
          <mxGeometry x="110" y="293" width="567" height="265" as="geometry" />
        </mxCell>
        <mxCell id="5ZlzFRV1RBMYGkfswWvm-3" value="" style="shape=image;verticalLabelPosition=bottom;labelBackgroundColor=#ffffff;verticalAlign=top;aspect=fixed;imageAspect=0;image=data:image/png,iVBORw0KGgoAAAANSUhEUgAAAjcAAAEJCAYAAABosAbuAAAAAXNSR0IArs4c6QAAAARnQU1BAACxjwv8YQUAAAAJcEhZcwAADsMAAA7DAcdvqGQAACPjSURBVHhe7d1NiCxZn9fx2o1Qi5HalAsTpMBqH9y4dHbTuwIXCsKDmwsuXMizEimGCyLPxsu4aBF7obQU2iI8s5lGF48o9MhlkGG4g8wjKj3DMD1e5OLb9e0Z0HlkGML4RsY/68TJE1kn6yUrTtb3A6cz4/2cE5F5fhmZdftEkiRJkiRJkiRJkiRJkiRJkiRJkiRJkiRJkiRJkiQt1el5d3F50Z2fnnTjnN5Zt7q87C6HsurOTtJlkiRJC3a2IsBMww3zLs5Ph+lh+erMcCNJkhpwtuouLy6yOzfctUmmhzs73r2RJEmLR4jpQ0v+tdRWmMnCjiRJ0hKdnl+sv3p6hHDzne98Z/x9zm355JNPtuZZLBaLxWJZRPmDcQg/IgSYi/PulADzCOGGjmpNa3X+8OFD9+mnn45TbXj37l336tWrcaoNLdb5q6++6l6/fj1OteHzzz8fSkvoY/q6JS3Wmdcfr8OW8N7Me3RLGAPHIfx48CPh1VkaZgw3S2e4OQzDzWEYbg7DcHMYhptFIKwUb1GNfxWVhZmtsLONbVvTWp0NN4dhuDkMw81hGG4Ow3CzRPmdm1765981fwpuuHl6hpvDMNwchuHmMAw3h2G4WaJCuJne3dl91wYthpvWgsLHjx+77373u+NUG7755pvue9/73jjVhhbr/PXXX3dv3rwZp9rw5ZdfDqUl9DF93ZIW68zrj9dhS3hv5j26Jccfbh5Bi+FGkqSXynBTwXAjSVI7DDcVDDeSJLXDcFPBcCNJUjsMNxUMN5IktcNwU8FwI0lSOww3FQw3kiS1w3BTwXAjSVI7DDcVDDeSJLXDcFPBcCNJUjsMNxUMN5IktcNwU8FwI0lSOww3FQw3kiS1w3BTwXAjSVI7DDcVDDeSJLXDcFPBcCNJUjsMNxUMN5IktcNwU8FwI0lSOww3FQw3kiS1w3BToclw8/6muzo56a7fjtODt931yXX/38f39vqEC2lTrm7ej0sOgLZe3XQPPuJD+uyx6hDGumz149vroX+ndQx9XefqEPUb95ueq5Mnuibu9Nh9Jkkjw02FZsPN1VU2eDxNuBmCzWS0fd/dXB044DyGA/bZnYp1oa+ZNxNudoWFWFZY5/3NVXb+JKlthpsK7Yabm+5tP3DdhoxsoGad0qf3Ydvr7rofRNfL5u4U9AqD5YD5yUbDADrua1Mf7kIk2xKS1pusw9H2sWfmZ3UoHqumTeN+7t9nUYe5+vfS7TfrFwLUuL+bPszcZsR+vWHeuM/JvpK2jW2I4w9tifpN6jmK/Vz3+xge+52n+07rNt45iuMM+5nUg3ml9hfmTeo0c26SfV/d3Aztn9RdkgoMNxVaDjfrgSYGyHQQXQ82MYhMPr2PA8pmgMlCyATLNivO2NQlez4XbtJ1em/fJvW6a/6u53e1abP+PfusdNzepp6T/a63vw1RmdhHX880DPJ83U+FffXhZNimVJf8cdhqbWgHd4lOYn9z7aQvbo9JPa5u3s7XYz1r3f7suJN5PBbPTaEeWd0lqcRwU6HtcJM+TwbqbLAZptNl6af1fN0UA9FmVGLVfgAaP2lPBqJhn/HJfNx3FjBu79xQT9a7HTTXZuYX25Idq6ZN6bzN8z36bLPsrvonJem7ifT44375Sor9rfupsC8CStRhqFss6+sY+5vMLyyfHHs0bNOvk53rtVKbxjtAk/YX+mRSp7Efkc7P65FOS9IMw02F5sPNMHk1DoilwbiXTu9YxsDad8lQhnEuXzfk+0uPG89nw81oWLc/Vr7/fH7NsdJ1kE8jm/egPgPzJvVP9nWXZH/rUNNvu5mOcJPtK7YZjpv1QbpsU59EOj9fJ6Znw81Mm9guP3/pvNjv3PHm5o+TkjTHcFPhGMLNehDqB5XNQFT5FQvuGFSGwJMNepOvEJJBcX1nJxt4hyXr+m2NncP80uCZzE/rt+tYd7Vpa94D+mwjrf90e/rtzq+leN63afhx8bjuOtwU9hVfB5X6IPY3V8/J/Ll20pbbOy/r+Td3tKl0/sZ5c3XaTBfqUaq7JGUMNxWOI9z0GPTSgYZ1hsE7HcB7s4PNvPUgGvvqy2T9CAnxG43bAXAIRsOy6+6m3wcDWb6vyeBWmD+t38yxatpUmnePPputJ9LtJ3VO9oVJXVh+GyrW4aZ/srWvse3D72fW8zd9UPo9Tiqfn+47rdvQH+P8WD+rR/pjZsrsOY1jlo5d2Hf+Wx5JmmO4qdBkuJGOTXJHSpJ2MdxUMNxIz2H9tVT/EhxLdndLkmYYbioYbiRJaofhpoLhRpKkdhhuKhhuJElqh+GmguFGkqR2GG4qGG4kSWqH4aaC4UaSpHYYbioYbiRJaofhpoLhRpKkdhhuKhhuJElqh+GmguFGkqR2GG4qGG4kSWqH4aaC4UaSpHYYbioYbiRJaofhpoLhRpKkdhhuKhhuJElqh+GmguFGkqR2GG4qGG4kSWqH4aaC4UaSpHYcb7g5Pe8u+sbRwMvLi+789CRp6Fm32ixbdWcn6bJthhtJktpxpOFmHV5WZ2NoOVtNQszZ6rK7OD/dPL9cnRluJEk6EscZbggzF+fd6eaODGEn7t6kz3vDHZ7dd28MN5IkteNI79zkkkCzFWaysFNAJ7169WpS3rx5M3ahJEl6Ll988cXWGP0iws3w1VPcyblnuHn37t2kfPPNN2O3SpKk5/Ltt99ujdFHH25Ozy/6Ru76Gqou3EiSpDYcdbjZCjYw3EiSdNSONtwUg80gCzP+oFiSpKNynOFmCCzzd2PSP//2T8ElSTouRxluhsDSNywvm3/3Zrh7E/N337UB60mSpDYwbo9DuOYYbiRJaofhpoLhRpKkdhhuKhhuJElqh+GmguFGkqR2GG4qGG4kSWqH4aaC4UaSpHYYbioYbiRJaofhpoLhRpKkdhhuKhhuJElqh+GmguFGkqR2GG4qGG4kSWqH4aaC4UaSpHYYbioYbiRJaofhpoLhRpKkdhhuKhhuJElqh+GmguFGkqR2GG4qGG4kSWqH4aaC4UaSpHYYbioYbiRJaofhpoLhRpKkdhhuKhhuJElqh+GmguFGkqR2GG4qGG4kSWqH4aaC4UaSpHYYbioYbiRJaofhpoLhRpKkdhhuKhhuJElqh+GmguFGkqR2GG4qGG4kSWqH4aaC4UaSpHYYbioYbiRJaofhpoLhRpKkdhhuKhhuJElqh+GmguFGkqR2GG4qGG4kSWqH4aaC4UbP5Vff/+/u937/D8YpSVINw00Fw42ey8/+3V/v/sm/+2/jlCSphuGmguFGz4Vw8w9/7T+NU1oi76xJy2O4qWC40SH959/9f+OzrvtTf+vX9go3f+9XPnRvf/t/dn/uH/zb4VGP6z/8j9/bupPGOfrRh98dpyQtgeGmguFGh8TdGn5rg5O/+i/3Cjd/8Re+6b7/L35n2I79HJMlBAjOBX2c+mN/41cMktLCGG4qGG50SOlXURFuuFvAXYP/9X9/f/ga5Od/6X3xtzjHGm4ID3/ib/7qOPU8uCv2+p/9dvcX/vG/7/7KP/2tca7hRloiw00Fw83zeIk/pCW8MFjytRJ3KiLcEFQoDK4MpMyn/MKv/5dxy7Wrv/9vuj/81375KMMN/fKcCFdxHujf+K2N4UZaHsNNBcPN4fG7k3QAYdDnjsSxi7suMWDynLs0MahyZyYNN+kdBMTAS+H5Y0p/C3RotJnQxnXwXKJPo4//yPf/1TCfc5WHTEnPy3BTwXBzf/sOiNyxYACLAZyvYsA0gwhhh68HjhVtpN1puOF5DKp5uMl//xEDL4XniHPAnbD7hgNCFPtjXxE44/EQos08Poc4Pn1AqIk+/tN/5193f+jn3u71uyhJT89wU8Fwcz8MCLz5M6jWfsXEQE6gicEkDzdM83isf51C22g3j9EHFO5aMLAy/5//xn/fzCfcMLBGaEnDTfxGhUf6jWXsMxd9vAtfd/FXQfGbnr/9y//xye6klQJx9EXUn7CV1pttqNNTieOn/UuJ88U5oD75nTRJz8NwU6H1cLPv3ZNdYl+8mfOGz+34uU/wMSAwKPJbkRJCD/v8jf/6f4YBmsGCr2FiW47DoMWAzidk1o+BZV8c57l/lHqXNNzEV1RRaD+P3N2KeYQNHukfpIMv+wCPc+GGv8qK9VKc1zRAsi3rcby0pFi/JiiVcO45Bo8EYo4f1xqPEeii/qzL8SPQML/UDlCnueuvFncLOT7XT/Rv9DGP1Ie68Cjp+b3QcHPWrfqG0/jLy1V3dnKysxNaDze84eaD2n3EX4rwKZ43dAYXggul9Kk5DSL5QBgYsKkf66Q/ho2BnYGcASWOGQM8JQa/WgxybMcgHGHgKexbLzCo04fRNtqZtnWu0K88xtci0ZcUtqfveCQs8Mhy2h930+ZCAeeUfcTdmdgfx+Mxvo5J71RwjtIQEUEnfgQ9J4INx4jzTJjg658INRyHR/ZD/7KMenO9sIxHCvKwvSv41MqDZpQIN/F86eFZeileZLg5W112F+enQ8N5frk6O3i4ue8n3PtgIIjB774YIHgDj0GPwuAWz5mfSwcEBh4GsVTsM37DkA4UcZwYwNJlUeYCU47j0P4IWwy2c9syaLOcQZYBlm3BnaXSj0ZpU9zh4DnrU1/2w8Bc+7uUv/yLv7nVvpqShgGk4SYt1Ceec97oT0JB3InIr8dYl5KHVB5pI48RaGg789g3fc3+eM58jkUopp8i+LFNHJP1Y//peU+no13c1YvrKq6/9DcwoC+jP8A2LOPc3DfUzoWbvFDvl4TrO67/Q+K4ta+t+0qv17ljceczf/3n/RF1TT/0PEXdOT5lKUofeEvSfkmfP9QLDDfctbnozk/HuzWn593FHXdv/vh3/uRw0fBmXLqA8hdAXMxRwDaxHs8ZCOKTM4/smxJfz6RKx7wLb/AxMPOmG+GG+lAPXoAcj8d4EXMM6sKgRz0oUed0gJsrMViFGAijUAf2Rx3YdwzM9y0MJNSLgYz2pv0N2sVxYv10MOTYtDf6H0zHuhTOEW0gAPCcAZbBMf6BPY7FcWM9HiMsREm/tou+TOsY5kJJbeEOF3VLw+c+JQ0EaZ9RImhQ8nqyjHanAYPp+Oos/QqNdeifuNPCc/o+DTdxjvKSzk+PlRdCVOybc0J/pOed+fQ/bYywE9d/XL8sT8MR6J/8WHOFfabnOn3t8rw0j2NTH66teB+I5/GamVNalr8Woz4p5tFOgibniTZSOCfM41zThwQ7CsuYR6GfmY5rg3NKX7MfgjTrME1hH7zeWJ9HptmeZeyX/qLt1IVH5rE96xJM2SfbsD375hxSOM8cnxLnlvWYZjsK7WB/0Ubm8ZqM9wweWc58phmQo25xPtkv06xDOzkG9YsPDHF8nse1xjyOx3TUlee0if2zPPqJR+rHsdk/hW15TM8NdWB9nlMHlrMvlrNe1JPXE9dPXMexH7ajUIc4fuyb5RT2x/osi+2ib9gv54r+o7Au9aDerMOxOV7UiX5gPa5jtqWfmc9jnCfqHH1MoY+iT9gPhWNTF7Zj/1EPXjdxvbAO9Yhzyf7P/uzPvbBwsxVmsrBT8FN/6R8NJyAtq7/+S5uLlum4qHmMeZS4qGM61uGRiyxfFoXt4mQzzSPTXBBRWIdHLqp4cafbUFge25fqUltiP7sK+6YerMvjfY+1b4nj8EiJfmBePN5V6BtKadlcqWlfvOnxYmX9OFf0EfN4zrx8u+cq+/bBQwvtP/QxdxXqwvmI64jp+17LbBvbxXXAdBSugdr9sh71iWuH51w/PI/j8Mg0JbbJ92OxHEupur5flEcKNw8tvBGV5lssFovFYnmE8qLcI9z80Z/5M8PtrriFzm02brfFbWRukbGM22HcNmOa+THNumwXt9S41cYtNDqf22exv7jdxnrsj3ncMuc4TMd+4zZ6HDfm8ci6FG7tUWfW4Tjc1mNd9s2xKenzaA/1YVvWpT4xP+q7q7Aut0Oj5AGOT5qxX+oTn2bvW/j0Sr24dUq9ow/pG45P+5lX2pZPt9zKpE7Uk23ow3QdPhnEXZX4xBy3cdkv68cdmfhUnbaZ9akf54CvCXgefcO2lJiOT9v3LRyb83nfPqX/6C/ONftJl6WfkPapJ31BX8U0daPQV0xz55Lzxesk1nmMQn2pZ15X5lMnrhfayDXIeeQ59eDapP28jngN8Mi5Yd4+d9c4BtvE/nhkXxyH55x3rgkK8+K9hUfqEXXjeqHQP6zLPuLapjAd1xbT7DfqH8elsA6P7If50VaOw/Ubd4Hieucx+iqW521kefo8ve7S57GvmI7lMZ9+5v2Qa4HXFnWM9XlkHtdm1Cvdz1yJ1yDnn+0oHIdp2sI1GdNpG6nXXHsprFtbh7tKup+oF8eO5/G1DiVeM9Fv0T4eWZ/teE5hHdrL9cN5jr5jfmwT+4z9s++0L+IYzOM5y+kvzhGvnfS9m2XxNRfrUJhHYTnTnF+ubdZjO9aNY5dK2jfUg+k4XzE+8RhfmXEs+ov901bWY95P//nvG27uCjdP9ddSvMEcAiecN/GH4I2Tiy29ONMXIPPS3xGAiy+WU7jAU/ny/KJOn6fTUXjxgu+W536TwHzaTr05PtvxYuPFAQaL9PcJ9BUv8HijZTBggMnbFhhUYnuOxbocg/6Yq1NJ1O2+hTojzs2uEu3jDSD6PP+NRrp+GlDot3QZhWOmb5asQ7/E+eZNh/PH9R79yDZxTM5jbBtvinlhH/Gcc5QuS9scAzf7pv/jDZ76MY/r+D7ya3Wu0J95X7aC1wJK1zrLKCyjD2ljBKpYn3mxHoXlnAPWofCc+WHX66NUB+ZxjKgD55l9MM2xCHUsj3k1SnVgHvvmGPEewLxYlzZwHEIj1ziDPetEcCQ08px1ou28L8T1T12jj9jHnAiz0Za0TaV639Xm2Fe6P+bN2bW/OLe70N45EcDpI57TR/EI9p3W9T74rew4hL8U+/+guPU/BecFuusirsWFx4s3Pl3xImaQ5MXNhZnjhRtv+gyoXMwpLmCWxYDGOrE++4x5hJFI7rGc5/fBtrv64q4XbA3qvu+Lkn5Nw2KplAJehIoIEmkfcY6Yzzqxb+ZxHjkXvPlEGMvbzfpxvDiP7DtCGPtkmnrTVrZnmu1yHC/vD97UAtuyHXXj2mL/HJvrglDBNcC1xnyOR715TmGbCF9z1wT1n1tWK9p9V3nocSQ9jhf7p+Dx59/P9afgLWMwqglLDKC84TMQxp2SHOswwDKQEWAY1FiXQYxtIxBFuIlBmkHvPtjPUtGvDNYxUKaFtlPy+XEXI/opvasRAy3zCBjMyz8psh3HzDGYUyKsRP8zj7DBOSJwpB7yKStCc4SkPJDHtcQjnxqpM/WgPhyX7aO9OfbD9fUQEQLzEuGSPub4S76+pJfkRYab9d2bl/OP+D0XPp3zps+dDAahXViXdRggeB6DWXzCj8GLaeYfK9pI+xi8069CGJzpy/T3WhS+rmFdBnwwuMayGOwJDIiQkyIYlO620P+UQF3i6ya+5ot9PgXaUAphtCnqRJ2pSwQqrgvu4Mx5SPBCHD8Pn3G+uJtEHfLAJ+l5vNBwsx/DzcMwoOaD6pwIMAxcDBoxiDK4MMDPDcbHIgZLHuPrIO5mEWIIGASbGGgpBI70DkcabggzqacMJI+Jdud1pc3cJXku0edxftI+5jFCuKRlMNxUMNwcDgN4eqchMK/0u55jQwik3QyitJeBk7tWpa9oKISdVBpujukrEvrioV8tPUT0OX2afhXFdcm04UZaFsNNBcONDokBlHADvgYh3KQYSBnoGWDzZWwbP8Y+pnCDmt95PZU03FC4exjBknNluJGWxXBTwXCjQ4oBNJ7nAQb8PomAE7+1CemPsfl9jh4P54JAw9219Gszw420PIabCoYbHVIaaHaFm9KPtLm7wcBbuqujh+HuTSnEGG6k5THcVDDc6JAINAyk4OuPeJ7iT6Upc57zx7cvDXfQDDfSshhuKhhudEjckblrsOTuTPrVSG7XMj2u5/wtkKQyw00Fw40kSe0w3FQw3EiS1A7DTQXDjSRJ7TDcVDDcSJLUDsNNBcONJEntMNxUMNxIktQOw00Fw40kSe0w3FQw3EiS1A7DTQXDjSRJ7TDcVDDcSJLUDsNNBcONJEntMNxUMNxIktQOw00Fw40kSe0w3FQw3EiS1A7DTQXDjSRJ7TDcVDDcSJLUDsNNBcONJEntMNxUMNxIktQOw00Fw40kSe0w3FQw3EiS1A7DTQXDjSRJ7TDcVDDcSJLUDsNNBcONJEntMNxUMNxIktQOw00Fw40kSe0w3FQw3EiS1A7DTQXDjSRJ7TDcVDDcSJLUDsNNBcONJEntMNxUMNxIktQOw00Fw40kSe0w3FQw3EiS1A7DTQXDjSRJ7TDcVDDcSJLUDsNNBcONJEntMNxUMNxIktQOw00Fw40kSe0w3FQw3EiS1A7DTQXDjSRJ7TjOcHN63l30DaNxl5cX3fnpSdLIs261Wbbqzk7SZWWGG0mS2nGE4WYdXlZnY2g5W01CzNnqsrs4P908v1ydGW4kSToixxduCDMX593p5o4MYSfu3qTPe8Mdnrvv3hhuJElqxxHeucklgWYrzGRhZwad9O7du0n58OHD2IWSJOm5fPz4cWuMPvpwM3z1FHdyHhBuXr16NSmvX78eu1WSJD2Xzz77bGuMPupwc3p+0Tdw19dQ9eFGkiS1oflwsw4w23/9tBVsYLiRJOnoNR9uSorBZpCFGX9QLEnS0Tm+cDMElvm7Memff/un4JIkHZ+jCzdDYOkblZfNv3sz3L2J+XfftQHrSpKkNjBuj0O45hhuJElqh+GmguFGkqR2GG4qGG4kSWqH4aaC4UaSpHYYbioYbiRJaofhpoLhRpKkdhhuKhhuJElqh+GmguFGkqR2GG4qGG4kSWqH4aaC4UaSpHYYbioYbiRJaofhpoLhRpKkdhhuKhhuJElqh+GmguFGkqR2GG4qGG4kSWqH4aaC4UaSpHYYbioYbiRJaofhpoLhRpKkdhhuKhhuJElqh+GmwuLCzfub7urqpns/Tj6V9zdXXBzrcv12nNt1b6/HeX25uinXIt02XWdu233Xn0j7g+fj+ptS6qu319N1on2l7U+uu2HpPv1+iHN072O8726uxjaNSv0/Of9RkusgzJ2jfedPpG0rnZPac1ralvN5iPMj6dkYbiq8yHAzOQaD4Uk3jGsMIJP5V93W+DQMKDF4JutsbTvuc9/1c2ldC33DYDodRN9215vjrW3WKWw/DPIxUGbLZu2z7n3d6xi0fRzgxznDfkr9P7HdZ4O5c7Tv/FzatkI7q8/p9fXWtsP57Nv45OdH0rMx3FRoKtwMA9X4CTVdJ5l/dXNTHqhSk2PsGvC25zN4pANPTD/W/HHitj3pAFbom7fXWR0L62yUlsW8XdvlZtddD8LXm7sX2Xlgu7Fd6fmj7ev1k0E9PcawXekcpTiPHG8aBHb282g7TKzNbbvv/HHi8c9paX4cp7S+pKNguKnQTriZhpDbgWP6CZn5m0GVT9LjgLIpse8YBGYCDOumA1XIB7DhGBy88Kmd+fuuH88n7dmqc1rm67/VhkLfDutysNl+L5hdl2CR1T0mhnYVzl+6r9Lz/Fi7zulgd7jZ9H+YbUtv7hztO398Hocd+iXW4/h5e2rPaaHu6333bc7mSzoehpsK7YSb9cDZV/m2DKPFdDDbni4YBpRYh/W3B5N+pWFAmgyMvV2DJXcA1nXr93eznr/v+lvtT6fnBrNxfyVxjGGVod1xzChjPxT2PWt23V3ngufZsaPek3ol9RmmS+dml2kddvU/tpZniudo3/l5f6XThb6sPqc3ab9F6dte2Kek42G4qdBWuEkHzrBjQGUgy9/82fdkgCPElAfQ0iCTD4Zzg2PM33f9/sleA+HQxh0D4SDW2TXo7VqWm1237/vJ/PTczJw/9hXz8+fsKz/W3DkdF+fH2d3/8+e+5M5zl3nyczp3h6a0T0lHw3BToZ1wM721z6fX9YBSuOVfGkRTHGOzDoPheoAbtt0MKtP9bsxsOx2Qkvn7rl9qz46BcGtgHQa9rP/6ecVBNrVrWW52XdqR1X3Txpnzl/TD5Nwlx9hq407UITn/7KfU/7irzXPnaN/5Wdsf7ZwWflA8uKtdkppmuKmwyHAz98k8XTZ582YgGef3b/jFOwSZ9UC63mYzHvVuv1ZgX+lAdbvPdNt0EEq3Tfe57/ppO7d+fDrO35TCIJYebyi3o+r8oDe772nbB3esu98Pim/P3dXN2yEEDH00qSvhIAklO23Xd67/h9Aw6XhMt587R/vOT9v+aOd00keJyn1KapPhpsLiws2DFQZjPcj7m5vK/rTvJempGW4qGG602/vu5qa2N+17SXpqhpsKxxduJEk6XoabCoYbSZLaYbipYLiRJKkdhpsKhhtJktphuKlguJEkqR2GmwqGG0mS2mG4qWC4kSSpHYabCoYbSZLaYbipYLiRJKkdhpsKhhtJktphuKlguJEkqR2GmwqGG0mS2mG4qWC4kSSpHYabCoYbSZLaYbipYLiRJKkdhpsKhhtJktphuKnQYrh58+bN+KwNP/nJT7rPPvtsnGrDx48fuy+++GKcasOHDx+6L7/8cpxqw49+9KPuhz/84TjVhnfv3nVff/31ONUG+pi+bskPfvCD7ttvvx2n2sB7Bu8dLfn888+7H//4x+NUG4473JyedxeXF9356UnSyLNu1Teahl9errqzk3RZWYvhprU6M+h++umn41QbGMBevXo1TrWhxTp/9dVX3evXr8epNjAYUFpCH9PXLWmxzrz+eB22hPdm3qNbctTh5mxFgJmGG+ZdnJ8O08Py1ZnhZgEMN4dhuDkMw81hGG4Ow3CzJGer7vLiIrtzw12bZHq4s3P33RvDzdMz3ByG4eYwDDeHYbg5DMPNYhBi+tCSfy21FWaysDPDcPP0DDeHYbg5DMPNYRhuDsNwsxCn5xfrr54eKdx88sknQ0elpTTPYrFYLBbL8xfG6HEIPxIEmIvz7pQA80jhRpIk6WC4S3Ob1lbdanXZrc7SMGO4kSRJzSKsTG9NbcrwV1FZmNkKO5IkSUuW37nppX/+Xfun4JIkSctQCDfTuzvetZEkSZIkSZIkSZIkSZIkSZJU1NIPj0v/Xs9C6z/8yDvq1Uid+f+UtVbn0NCP6qf/ZlVet6X282l3fnFb5/if8q4tsM6Tazkpm78a9TX4aNI6xz8su7G0OlOfffp1CfUv1Tns254X5D7/9/DnESdseiKXWf91XTf/yOLw4r+9yBZZ5/zfQmqhzomhTk1cG+u6bK6NzJLrvBm4siC51DpPNFHn6fvGOgS38L6R1TkJOMuq8/5jyPPXv1zntZbGxIOjc5KOyQe4hYhPuher1eQNarH1JxhMPsGk9Wyjz5uq89Dfj/N/xn963AFJ65laap2zek0s/NoYrO86xRv+YuucfaCY1nPBdW7gve5+Y8jz1n++zvdtz0uy1fCsYxbi9Oys+ImxlfpP6tVKnw8vnrGei64zdenr1sy1sa7HxeYrngbqvFWvxKKvjVEeGhZ9bczcBVlqnYvhZmzDgup8rzHkmes/W+de+2PiU2utIxo9kcOtwaW/SYWhfo0Muj0GgOETeSvXRlbPJkLkOICdjZ8WKZuv1RZ8bazld216i64zdRmDbxoaFn09J9fDECSXF242hjolddhVx6XUP69zap/2vCitdUSDJ3I9eLV38TUx6FKvSWhsr5/X9VrwYIBxwNoEhLSvl97P+XWBxdZ5fS1s+jm947Tkfh6vj6Gszocwabh5RHmdU/u050VprSMaO5FbwQbN9HlSr4XWmTti0zsISZ2a6ef1nYXlh5u0Xg3UOVD3ydcmvaXWuVivRvp5I/lN2RLrPNQpqcOuOi6l/nmdU/u052XJGr7VMQuzdZKXW/9isBm00udpPZdYZ+o0flrMy/DXAfbzo9mqRxJuFt7P5b8WsZ+fzKReC6zzUIekTjvruJD6b9U5sVd7Xpj0xb/4PxsrnORF1n/XxdhbZJ2zT+dDOEs+8S6yzqlWro2sn4d6NdDP1KX4dcm4bIl17i+KJBxMLbPO6/o21c/Z6y6v1+LqvOf7xCLqv2s8aeV973mQ9PoOGMrCE17xJC+v/sMFtanTbbl9k11mn6/vNs3Va+HXSSPXBtrs5/XAG/WeBoal1nldr1K4WXqd1/Vq8HrOvwJcWp33fp9YQP33DDdLvU4kSZIkSZIkSZIkSZIkSZIkSZIkSZIkSU/k5OT/A6dqrVIwV70cAAAAAElFTkSuQmCC;" vertex="1" parent="1">
          <mxGeometry x="110" y="543" width="567" height="265" as="geometry" />
        </mxCell>
        <mxCell id="5ZlzFRV1RBMYGkfswWvm-4" value="" style="shape=image;verticalLabelPosition=bottom;labelBackgroundColor=#ffffff;verticalAlign=top;aspect=fixed;imageAspect=0;image=data:image/png,iVBORw0KGgoAAAANSUhEUgAAAXoAAAEJCAYAAACaFuz/AAAAAXNSR0IArs4c6QAAAARnQU1BAACxjwv8YQUAAAAJcEhZcwAADsMAAA7DAcdvqGQAABmTSURBVHhe7d1tjFzVfcfxfdF3+6LS9MUqIRPoNF0raqGpQpuoVREmIdmqiWixjY3xGgMODyambViDeSqUpOAYKLAEx64XYlNsy4HlyYB5CltDSLJY2E4A20SYOKmlFpGkNRLNRlF0ev9n7rlz7rnnzsy1d+25534/0h/mPp374JnfPXPnzmwfAAAAAAAAAAAAAAAAAAAAAAAAAAAAUEz/gGoMNtRAf5+Kx0Rqqj44qAZ11VWtz54GACiVWl3CPB30Mq4x0K+H9fR6jaAHgFKq1dVgo+H06KU3bw3rHj+9egAoIQn0KMDdSzeZYHeCv2xmzZoVX4OiKIoKtn4dR15K/0DUk5fLM6EHvRwEY/bs2erQoUP68ejoqC5j5cqVanx8PB5SanJyUg0PD8dDLXYbNrc9lywjy3arU3tF2e3Jfsr+GvYx8m2nHAc5Hja3DZvdno97rDvp1F5R0/2cyNs+tz1XXnt5OrVXlN3edDwn2m1fp39DX3vtzORzwn7s7lOvPidkfXHktUiYNwZUv4R5lYJ+3bp1ampqSj+WA2o/sZ588kl14MCBeEip9957T23evDkearHbsLntuWQZWbZbndorym5P9lP217CfeL7tlOMgx8PmtmFr90QW7rHupFN7RU33cyJv+9z2XHnt5enUXlF2e9PxnGi3fZ3+DX3ttTOTzwm7bXefevU54Qt6+YC1XrODvSJBD4iTTz45fgQ0lf05kQ16CW7vJZ747hon2DPBXzKyY4CtSM8R1VD254TkXBx5fm6PPmLfUln62ysJegChO5KgT/f6S9ybFwQ9gNB1DPrQEfQAQkfQE/QAAkfQE/QAAkfQE/QAAkfQE/QAAkfQE/QAAkfQE/QAAkfQE/QAAkfQE/QAAkfQE/QAAkfQE/QAAkfQE/QAAkfQE/QAAkfQE/QAAkfQE/QAAkfQE/QAAkfQE/QAAkfQE/QAAkfQE/QAAkfQE/QAAkfQE/QAAkfQE/QAAkfQE/QAAkfQE/QAAkfQE/QAAkfQE/QAAkfQE/QAAkfQE/QAAkfQE/QAAkfQE/QAAkfQE/QAAkfQE/QAAkfQE/QAAkfQE/QAAkfQE/QAAkfQE/QAAkfQE/QAAkfQE/QAAkfQE/QAAkfQE/QAAkfQE/QAAkfQE/QAAkfQE/QAAkfQE/QAAkfQE/QAAkfQE/QAAkfQE/SdHRxTQ31DauxgPBybGOmLnjzZ8ceU3rYRNREPFjOhRvpkH5o1VHRHJkaSZTseh7bz2tvh7Es368j59wGM3KDvH1CNaJpMHxxsqIF+/VyL1VQ9mVZXtebzsJwI+i54guTg2FD0j340AXu8g+mgGhuywr1oWLonGB3IOcejw7xywjTboU+eI/GULtfREydc9DR/0DeDvF6LA7xWTwV6rT6oGgP9yePBes3TRkkQ9F1wQ7BdqHWlF4Le3QYn+Asrsk/2vM5ybrineNYh/xZDQ+l/H8DhDXoJ9saA6k966hL8pldvP47onn+Je/VyAIaHh3UtW7ZMHT58OD40SNhBnxfybkDZw/J4aESNREEaHXKr7HBqBm0ybWgsGmPR7bWmm06vf72e+Vze5azt0fvZaicpd7tiRd7hpOZ1tyN6lHfCyK5D5o2G3W1H5U1NTamVK1cm2ebv0buscM8EuxP8ZSMHYHJyMil4mCCZkP/nhKc3OO0ws3vLbpjFId9Kb8+wE8ImcFPrbTOfK1lOtiVaV958ncT71tWlE9+8qe0XnqDPWYcEvz6menoX60el7N69O8m1boJeX54xPfwQgx4dJEEThfXIiD9U3MCyhzNB5ISZu6xIjXOD39LtfC53nXr4yC/dHPMevSyXOtkR9MjXKej7BxrRPO0u1RD04XNC0BtqbmDZw+606FHHoHfn0cP6SaYrCWRv2575XL512pelCl66yW5vO9a8nY5NSmuafADbesMjbXS7blRRu6DPhLwg6CsoEySenrMbWPZwpzDLTI/4xhl2IHc7n0sv54Rju7Y6OsKgd5druw1mXvm/fsFlq5t3M6icvKD3hrzmBHsIH8aig9xQtHvMzfAxOVPs8kT2xJG6zdCd3772nmq7zXyuePvt6el1duCcRPT+5q2rw7z2elPb0O06fP8+gMUb9Dq883vp9i2V3F5ZBXlBooPIvaSjnzTRuLEodOOQygR9HOzWicEep8sNtHhdzbK2xW07bz6XWc6ePy+oc9j7m37n0NwX+5yRP6+we+jpae2XixH06MAX9Dq8o/FuJffV6169GV/i3ryQnUAFZU4+QLgk5+LIqyaCvqIIelQIQU/QVxNBjwoh6Al6AIEj6Al6AIEj6Al6AIEj6Al6AIEj6Al6AIEj6Al6AIEj6Al6AIEj6Al6AIEj6Al6AIEj6Al6AIEj6Al6AIEj6Al6AIEj6Al6AIEj6Al6AIEj6Al6AIEj6Al6AIEj6Al6AIEj6Al6AIEj6Al6AIEj6Al6AIEj6Al6AIEj6Al6AIEj6Al6AIEj6Al6AIEj6Al6AIEj6Al6AIH78GnzCHoACNnvzrmJoAeAXvLky3vUvd96OKnVD72ibnzmnUzJeHu+vDpx6VqCHgBm0pZd/61OX7MrUxf/ywZ1x4qRTD0//xS1d+5HkvrO/JPV4qUrMrV54V+p1+eemKk35tZTyz967qcIegA4Gj/5xa/UxNu/zK0/v/0V9U8XLFarlsxP1YZFZ6rnF3wiqecW/Kl6fOGn1d45H1JvzfmwVR9S++eeoGufVW+m5rErvby0F0deNRH0AFy/+s1vM2G97c331GW3bVGXr9qYqW0L/izpPe+bk639UTXDNxvg+Y+nr/ZHFUdeNRH0QPVcf/WN6oElf53UIwv/Qm0/95Nqx/w/Uq/P/ai+9NEK3VZJYOYFqW98rxRBT9ADpfWJO15Vyy+6XI1ceLFadf78TH1n/inqlXM+rmvXvIb64byT9DXsN+fIZRC5HNIsXzi2KwlOU77pbun1eMa/5ay7XXvuNN9w3vJvRPsbR141EfTA8WFfHnnp1dfVK889k9T4w0+otYu/qP79vDNSJYHtCzKqfS2/8DKCHkBx//N/v/HeyufWrTfdkrmr5M7llyThvXPeH3jD6XiVbI99cpmOuvv8s/WdN/Y1/2NZJ556BkEPQKl9737gDQlTG9c/kArrf77iH7xBORP14vxTUsF57QUX6Es2N3z57/W2bFv6eW/ddteY9+TTru7a9Ky69YWD+h1HKCTn4sirJoIeoTLB/eDEj7yBds0NX9chuf6Ki3Qoblr0GR2i3154mjds29VjCz6dCmJfPXT+Z/V67r7yCr3eh2+5Xtfjmzarl7/3WubEYtfuQ+/He4UjQdAT9CgJc6/22k1Pqg2j96itX7tOPXLxF5Le61NLTveGcLsyPeWxRZ9Peupubbr5Wh3IW1fd7D1hSO14/afxVqIXEfQEPY6D7x/8Xx2O5sPHjZsfVZtvu1WHqglY6WnvOPcUb0D7avuCT6qti5u9ZlOm92zqrvseUt96+lV9wpAeP6qBoCfocZTcL9ds3/fzpKdrAvbupecmlzB8d464HwA+fuHndEjfe81VySUO06u+b/yF1PpM/df7v463CEgj6Al6tCF3lkiISnjLh3QS3nLZxAT4/cNDueFtLot84+KFSWBLr92cBLY//3IS0lyDxkwi6An6yjIhLvdwm/C9/Zprk1v/5ANGN7ylpPf94LL5Sdjfs25Tsvw3tz6fhHdId22g3Ah6gj5Y5q6Thx57JvnwUoL5axcM6yCXa9omvOVOExknt+19/StXqruvXpGE97PbnlLffXGC4EZpEfQEfal99+XvJd+klFBevfre1JdxfjT3ozrIpXcutw+u+cdLddibEN+682dcNkHw8oO+purRNJk+OFhXtb6+ME8IBH15SA99x+4fN0P6huvVt5f+jfdblRMLTtGXYGS+J3Ye4O4SVF5e0Nfqg6ox0K+nyePBeo2gx/GxZ98BtfqKLye9cykJ+LEvzdO9c/n2o1yi4a4TwM8f9NKbb6iB/rgX3z+gGqH26uUAjI6O6tqwYUN8WNAL5IPNb15yXirgH1h6lv7CkNyHDiDf+Ph4km3eoM8EuxP8IbGDXurw4cPxYcLx9tzO/Zk7Xx4+7zR166M79R0zAPympqbUunXrCHpDDgB61/iLu9S6667W96Lbgb/x/CF92Wb0gSe4lRHogKAn6EtDLtesf+xlHfByR439JSXp+Zvwl6/5P7P9Bf3bMAAIeoK+xOTDV+nNb3p4u7r9q6vU1kvPVluGP5M6AcgJYXzJmfrHv+Q+enNb5bqX3uHDW1SGN+ir9mEswjO57z/V9i1bkt+I+caSOTr05WcJzElASr4oJV+SWnHJcv1u4O577tcnAvm2rJxETHGLJsrMH/RR1Fu3VHJ7JYIj4f3CSzt1qMulHh3yly7RJwPfTx/IuwSZdt/lw8nP9kqtX7tBtyF3AkmbfFaAXpQX9M1ePV+YQoVJcMtPCW/Z+njzt9ivuUqfEKTkcpD9Ewqm5CQhJ4QHv/S3ybz33bBS3b/m39T6Bx5JfpaYdwk4lvKDviIIehwp8xmBlPyFJPlNefmBMxPw8nvyEvqmfN/ilTK/s/Ovw3+nrrnsCn2XkXnHICcI87mCeefAuwYURdAT9DgGzF+HMrXt0Sd1cJsfWpNau/iLqROD/UUxt8w7B/nw2f0jI9Km+9egZH3mz/Vxoqgegp6gR48yP6MsZX68beLp7fp3fOwTgq98JwdT5h2ElPwAnDnRjK6+K3VyMJeazDaY4m6l8iHoCXoEaM8P96VC29StN92iv3xmgt73wXORMu3YtebCOcnJwy35dVHZjry/kiXF9x+mH0FP0KPi5FKOHbR37viZOn3NLjW8uvWnEKW2LTy6k0K3Zf4yl13mb+HK5x6yLRtvuib5HMPc/XTjM+/ock9upn7ybnV/H4mgJ+iBI+KeIOySP0BuAlbeRchf5JLPE9wA9925NFNlX7Jy66srb0ydFPJK/giNuXPKlNyZZfZbPgdxp0vJH66xj0+nmu47sgh6gh44ptwPpqVuvnNj8qHyfyxIf6mtSiUfwMuJZ96lN6obRjdPW/3JmecS9ADKZeGKO9Xyiy7X32pedf45uuSSj1t75p6kXp97oq69cz6ia/+cE3T5grZX68eece3Gu7UnOoHEkVdNBD0QLvOO4dm3fqHufOmnuuT7DnZ9c+PDasOiz6ofnPOHavKcj+naM++kVFDut8oeX7RmcvlObceRV00EPQDX06+9o8ZuuDopufxxxtpd6oKLV6ibL1ikHlx0hq7HF35K/+nKN+UdwtwoUPMqCtokiJ3xpmT60QS5VN48Mj6OvGoi6AF0Qz58lg9VfR+2Pjq+Ta1//CW15pldmXcMUguuvEO9OP+P1Y75H0/V96N3Ea/N+31dO+c11A/mfUyP3+sEtQlrXdEJwpTMt1f+75Qb+HIiiiOvmgh6AL3m8uXXqbFFn0vq+iWL1eKlKzK1aOlV+rMKt245f0Fq+eFovjjyqomgBxC637nsIYIeAEJ2wl+eTdADQMh+7wtfIegBIGSSc3HkVRNBDyB0BD1BDyBwBD1BDyBwBD1BDyBwBD1BDyBwBD1BDyBwBD1BDyBwBD1BDyBwBD1BDyBwBD1BDyBwBD1BDyBwBD1BDyBwBD1BDyBwBD1BDyBwBD1BDyBwBD1BDyBwBD1BDyBwBD1BDyBwBD1BDyBwBD1BDyBwBD1BDyBwBD1BDyBwBD1BDyBwBD1BDyBwBD1BDyBwBD1BDyBwBD1BDyBwBD1BDyBwBD1BDyBwBD1BDyBwXQd9/4BqRPPK/IODDTXQ32ctV1P1ZFpd1frsaT2OoAcQuu6Cvhnk9Voc4LV6KtBr9UHVGOhPHg/WawQ9APSKroJegr0xoPqTnroEv+nV248juudfol69HIDJyUlde/fujQ8LAJTbgQMHkmzrrkfvssI9E+xO8Pc6OQDDw8NJHT58OD5MAFBOU1NTatmyZUmuHUnQ68szpocfQtADQMiKBn3/QCNapt2lGoIeAHqKL+ibYZ69iyYT8oKgB4De5gt6H2/Ia06wl/HDWAAIWVdBr8M7v5du31LJ7ZUA0GO6CXod3tF8biX31etevRlfot68kI0GgJBJzsWRV00EPYDQEfQEPYDAEfQFgv6ss86Kr09RVLVLXgsoD/k3iyOvmuQAdKvIvEDIeC2UC0FP0AOF8VooF4KeoAcK47VQLgQ9QQ8UxmuhXAh6gh4ojNdCuRD0BD1QGK+FciHoqxT0B8fUUPNry3GNqIl4Ult6uS7nzTMdbRjxfoy4jXW7junclooi6MuFoK9M0E+okb4hNXYwHhQTI6pvaEzZo0ohDvrMiYoAP2YI+nIh6KsS9BKCbUNdTgQjamxsKO7tWz1mO0B1OyNqZKj1ziA1X7tp3bShybbE0/R8zgnKtCUnKntBex1CD5t1uONbwwetfR5KVmRtg70sNIK+XAj6owj6lU+9rU5fs6tna8kW+2/gmuByQjMRTzfBaYdh5rEVzPa7go7Tumgj+u9YdAJIAlemudtstTUxknMyif4r+9PanSjMc7fFfezZhrYnyeoh6MuFoD+KoN/37gdq4u1f9mztPvR+vKUtEozRbsdlB6gEYzpQkxDNC0ZxJNOKtKFDNz/om9vtWVYep8LZ2r/M8tbJQmS2IXtsqo6gLxeC/iiCvvR0b9kOvB4J+lRAdwp6GYx667Kh9vhML9xqx12/Pg7xyS9pxz4hShH0NoK+XAj6Kgd9KkTdoG9evuj9Hr2I55lw2umqR2+TeaLxudNhEPTlQtBXJehTvXcjDrbkcdyjFXbY5T0WRzKt3XzxCabba/QJPU563mZ8c39au+O/Rp+8G0iNd7bBt76KI+jLhaCvStBH7LtLmmWHV7PHOzJi5rHC1Q46N/SOZFq7+bT4pCM1MtZFj76puX9uu559TS3fDHVzTEzmp7bBPdGAoC8Zgr5CQd9eM+h7LtByQh3HF0FfLgQ9QR/rlaC3e9L0pnsVQV8uBD1BDxTGa6FcCHqCHiiM10K5EPQEPVAYr4VyIegJeqAwXgvlQtAT9EBhvBbKhaAn6IHCeC2UC0FflaBPfXmoVa0vCLXT+lJR62d8e1/mC2Ld7ez0mq7vAcT/fpld6Lb9af4+AkFfLgR9pYLeeaEfp5A4FlI/eaA5P2tQNvrfQE5YR/hvOM0I+nIh6Ksc9Dr87C8k2V9WMvPm/RSAb96IrCf5oyK+NvLmbVaqx5qEm1QX607IdM8XraQ9ewWp9q116/HOdlrD9jsF+8ThHe9tK2edHY9F1I789k9mH/LaL74PnY9tE0FfLgT9UQT9B2+8on6+9faOJfP5zPTyqeXcQBCpcU6P1/6Z38yynea1Q6rAvPa0OHCy09q0Z/jGZTTbMe2n3gG4+2sPH83jjuvMOxYRq52Z+WMreqDzsY0R9OVC0B9F0JeKfkGbnlqr/IEhrF6xO+1YzCuPfSHTrj1DAirZMdEMwOY+28ta3HXnbVfcVqp5LWd8ZnstXa8zktkGz3LyOHXMrGOTWb6bbbWWdxD05ULQVyroWy9i6RUmPTehp6dPAsnlEjcAZnTeeDivN9muPaPtstb6Ium/uBVPa7ddQto3y9hp6Rs/Xet0hnVvXdZhj8/st/TQc4517rba2yblHNsYQV8uBH1Fg74ZAu169BZ32rGYVx53GdZZVo/Xllq22atNTnbuuu3lc9eZsx57/HStM7MNcYhP1x9bkYe582QR9OVC0Fc26CO6V2fGOddn7fkzy87QvKnhZihmT0Rt2rM0P2y0xzeXy+tBN3vZZtgKSBmypiU9aWG1kTc+93EktU5nWsdhoce52906ZnnX6HO3tctjKwj6ciHoqxz0JvySNG0GRXRYorLesnuXnYF5vcNmOfuack57LvvyhFSrAc2+hDIyIW221t08UfimmROGmaZHRnLGO/uUu86ujoU1HGtupzufWUfe8nn7ILo7tgR9uRD0VQl6YBrxWigXgp6gBwrjtVAuBD1BDxTGa6FcCHqCHiiM10K5EPQFnrCnnnqqPmAUVfWS1wLKQ/7N4sirJjkAABAygp6gBxA4gp6gBxA4gp6gBxA4gp6gBxA4gp6gBxC4wkHfP6Aagw010K9/DiNWU/WoHWlrcLCuas2fyigHgh6u4eHh+BHQVPbnRNGgr9UlzNNBL+MaA/16WE+v18oZ9Hv37o0fKXX48GF16NCheEipAwcOqKmpqXioyZ7f8I0Tbns+ecv6dNNeEXZ7btvudrnDvmPTbvs67aevvXaKHLdu5D0nZH9kv4yjfU647fkU2bd2x/xI2O25bbvb5Q7znGjxbUve9rnt+RTZN9NeoaCv1dVgo+H06KU3bw3rHn+JevX2P+Ds2bOTJ+Lo6KguY+XKlWp8fDweUmpyctJ7lrfbsLntuWQZWbZbndorym5P9lP217CPkW875TjI8bC5bdjs9nzcY91Jp/aKmu7nRN72ue258trL06m9ouz2puM50W77Ov0b+tprZyafE/Zjd5969Tkh64sjrwMJ9CjA3Us3mWB3gr/XzZo1Sx8EiqKogOu3ceS11T8Q9eTl8kxoQQ8AiEiYNwZUv4Q5QQ8A5Se991aPv67q9UFVr9nBTtADQEAkuFOXelql765xgj0T/ACAcnF79BH7lsrS3V4JAHB4gj7d66c3DwAAAAAAAAAAAAAAAAAAAAAAAAAAAAAAAAAAAAAAAAAAAAAAAAAAAAAAAAAAABxDfX3/D66MldLfp+oMAAAAAElFTkSuQmCC;" vertex="1" parent="1">
          <mxGeometry x="660" y="43" width="378" height="265" as="geometry" />
        </mxCell>
        <mxCell id="5ZlzFRV1RBMYGkfswWvm-5" value="" style="shape=image;verticalLabelPosition=bottom;labelBackgroundColor=#ffffff;verticalAlign=top;aspect=fixed;imageAspect=0;image=data:image/png,iVBORw0KGgoAAAANSUhEUgAAAXoAAAEICAYAAABRSj9aAAAAAXNSR0IArs4c6QAAAARnQU1BAACxjwv8YQUAAAAJcEhZcwAADsMAAA7DAcdvqGQAABp1SURBVHhe7Z17jCRHfYA3jz+i7B+gUaINdgbMGPaIkBWCzEMkEE5C8kaJcACfMY4XbJEQcwRMYCDnACZEJiYRzwshObPBJCF2LHE8gi1AAi8vA4uNL4A538NrL+bC2RgOzmBYQKTSv+qunl9XV8/07M7eTld/n/TT9qO6urq256ua6sfMAAAAAAAAAAAAAAAAAAAAAAAAAAAAAAAAAAAAAACMx+yc6c33zNzsjMmWJHRMd37ezNvoms6MXgcAAI2i0xWZF0Uvy3pzs3beru92ED0AQCPpdM18r+f16KU3r+Ztj59ePQBAAxGhJwL3h25KYvfE3zR27NiRjUERBEFEGz/JlFdgdi7pycvwTOyil0pw7Ny50xw7dsxO792714Zjz549Zv/+/dmcMSsrK2ZxcTGbG6Dz0Pj5+cg2sm1dRuU3Ljo/OU45Xoeuo1A5pR6kPjR+HhqdXwi/rkcxKr9xmfQ5UVU+Pz+fqvyqGJXfuOj8JnFODCvfqP9hKL9hbOU5oaf9Y5rWc0L2lylvgMi8N2dmReZtEv2+ffvM+vq6nZYK1SfWDTfcYFZXV7M5Y+6//35z7bXXZnMDdB4aPz8f2Ua2rcuo/MZF5yfHKcfr0CdeqJxSD1IfGj8PzbATWfDrehSj8huXSZ8TVeXz8/Opyq+KUfmNi85vEufEsPKN+h+G8hvGVp4TOm//mKb1nAiJXi6wdjta7C0RPYBw1llnZVMAKU0/J8qiF3EHh3iyu2s8sZfE3zDkwAA04/QcoR00/ZwQz2XKC+P36BP0LZWNv70S0QNA7GxE9MVef4N78wKiB4DYGSn62EH0ABA7iB7RA0DkIHpEDwCRg+gRPQBEDqJH9AAQOYge0QNA5CB6RA8AkYPoET0ARA6iR/QAEDmIHtEDQOQgekQPAJGD6BE9AEQOokf0ABA5iB7RA0DkIHpEDwCRg+gRPQBEDqJH9AAQOYge0QNA5CB6RA8AkYPoET0ARA6iR/QAEDmIHtEDQOQgekQPAJGD6BE9AEQOokf0ABA5iB7RA0DkIHpEDwCRg+gRPQBEDqJH9AAQOYge0QNA5CB6RA8AkYPoET0ARA6iR/QAEDmIHtEDQOQgekQPAJGD6BE9AEQOokf0ABA5iB7RA0DkIHpEDwCRg+gRPQBEDqJH9AAQOYge0QNA5CB6RA8AkYPoET0ARA6iR/QAEDmIHtEDQOQgekQ/mrUlszCzYJbWsvmM5f5McvKUl59SbNn6ZjmbHY9l05+RY0hjYaMHUlE/YWSfxbRrSwt5GdJQx7PcV8sr9jHW/qGNVIp+ds70knWyfn6+Z+Zm7bmW0THdfF3XdNLzsJkg+hoERJLKaTOC3W4xrZmlBSX3TciyfoPnGpZiWtm+H6zINL1bV1XnU9HgwlQTFn0q8m4nE3inWxB6pztvenOz+fR8txPIoyEg+hr4ErS9zI1KXpgG0ftl8MRfF6mLhYWRjYTrtS/0+15a2W/FtqV6DtRbzf1DuwmKXsTemzOzeU9dxO969Xo6wfb8G9yrlwpYXFy0sXv3bnPy5MmsaiBHi75K8jaNWq7nZXqhb/qJSJMqV+ELT61bWEqWKGx+g/V5Dzi430A6n+B2qjz2OAf55FEol4g3ycPfNsDa8nK6XSltKu+F/Nj9dV6PfoP7h3axvr5u9uzZk7st3KP3UXIvid0Tf9OQClhZWckDAjiRLMvfCnnaNL44s3k7rXvLfs80k/zA3oF5ld72YjPhFfY7JJ1Pvl0q08p0QxDx2mOyedUUrZ/Wmy8Pz2TlC5RxQ/uH1nDgwIHca3VEb4dnXA8/RtHDCKxIUtmUhx4ybJphotfbeKL3txUKy3zxK+qm8/H3aefHGLqR9IXGpqZoR6ZNxZ4eQjqdl0l/m9ro/qGVjBL97FwvSTNsqAbRx48VyUA45V5ngk3ji1NJqZC+huj9NHbenmQ2cvkF8w6k8wntU4t0xNBN4QKqzWtSok8bK5t3xbHJug3vH1rJMNGXJC8g+hZSEkmg5+xLSc8HhaXyK61PCC1z+D3bOul87HaeHIflVaDYmBRC10mI0H4LqLoplcc1ApvYP7SSKtEHJW/xxB7DxVgYQaUUdY950NsUCr3+krA80QcaDnvLYD7vpReBF4YtXN5D0vlk5dfri/scg1D9VOGn9RojW4a8TGm9BIduNOPsH1pJUPRW3tW9dH1LJbdXtoEqkVjx+EM69qRJli0l0q0SfSZ21TDoZTZ8QWf7SkOVxc+7Kp2P206nr2oURlGqH9fzzmY1gbrU9VYWue69VxxPIE8ATUj0Vt7Jcj/y++ptr94tb3BvXpCDgBbiNxAAESOey5TXThB9S0H00CIQPaJvJ4geWgSiR/QAEDmIHtEDQOQgekQPAJGD6BE9AEQOokf0ABA5iB7RA0DkIHpEDwCRg+gRPQBEDqJH9AAQOYge0QNA5CB6RA8AkYPoET0ARA6iR/QAEDmIHtEDQOQgekQPAJGD6BE9AEQOokf0ABA5iB7RA0DkIHpEDwCRg+gRPQBEDqJH9AAQOYge0QNA5CB6RA8AkYPoET0ARA6iR/QAEDmIHtEDQOQgekQPAJGD6BE9AEwZP73vHvPg7TfnIfMh/HRV8XuPfRSiBwDYDkTC37n+zaVY3f0kc+T8h+ex+uInmBM3XF2Ktdc80xx93iNLceS5jyhsf+MfnoboAQC2kv/76bq5992Xm+PvvKwQ33zD+ebuv3iKit81a/1nmMO7HmaOPOe0PA6fl8zvOj2J3yzEoV2DNIX0zyluf/DZD0P0AAB1+NHhW0vDIhJ3/eXTs95ztyRjFyJfX8Bu/nA2LX/d8knGoSQy5bUTRA/QPk7c+K/m2JUX5vGNV59j7r7sqWb1RY83Ry44wxyWoY9MujpEmFUiDS2flkD0iB6g0ciY9v3ve2NpWETirhc/yay+8LdtHL3o0ebohWfaMezDu063wyN5nDeQog1/3gsRp4vQ+lIk+R2SPEOh0g3Lz9/ezuv1WehlLm5n6AbRA2w3obtH/vfvLzHfvOI5hRBhh0RGDI+/eeoZiB4ANoYv51B87+P/Vrqr5NvXXJHL++jzdwTltF0h5dGNyyTiW2+9NKux7UE8lymvnSB6gHr8YOWjJWGHRLkVcdeLn1gQpzQUuhx6nQ4pc6jxGRbrd9+eHfHkOHDsAfP6j91VO559zdfME95+y8TiFy77OKIHiJmffe++oNC+f9N/WUnet++vCnK85/I/Csp2WKy98hmFPIaFjKdrSYuMf3LsaFbaOFm+80RQ6FUx84pPTj7aDKKHpiG3+DlJyx0jTqAbEbTrKUs+Wr6h+O4H/jHYYEj8/Icns9LFwfd+9DMrZx3/futx85DXfNo85K/LMfPKgFinLdoMooftQuSoZXniI1cXxCo9bRFxSNChuPtlT82l78LvPct+qh6nj50vrH0/l/avve4zYRnqEHn7EUpXKz4RWHaKo80getgKnLydYO9958tz+YbuHAldAPQlLSG96q0YQ95ujj/wk0LveVT8883HCkMdO991m3noaz9j45f7N4VFN1TYvoinQMyTjjaD6KEuIliRtxs2kXBDJyF5u2ERkbxLL7121wjEIuy7v/vjWjJ28fREykERRR4LVx8wL7ju67XiJR84ZN72mW9MLE572vmIHtqNvodbeszu1j+5wOjLW0J633K7nJP3D2+7aerlLXd9hGTsIiTkC/7jditlPx76mk8HRbaV8Ruv/2ywLKPi5R86kh/PB7/27eCxh0KGeWJCPJcpr50g+vjRFy8l3F0mMqbt5C0XMmWZvm3PyVtC8pg0P/7Zz4OSkXjbp+8pSFfij9/z1aDMdDzmTV8IinKr4snvuNVcfN3BUll1XPOlbwWP0YUM28DWgugRfaNxwykuHvjchwoP49j3liQid7f/OZG79PJWQZ+QjFwMG44IRUiOdeJXXr0czE+H9LhDZbnqE2vBsodCevoQP9Wi75husk7Wz893TWdmJs4GAdE3C3dPuAyxyPj44cX5vFfu4raLH2+uf9Pfmn+65v3mjR/+qlm4+n+CojzjypuDkvVjmHT33HhnULYSH73jO0G5upAePcCpoEr0ne686c3N2nUyPd/tIHrYOvQFPemROlmKTJ/59k+ad7zyZeb2XQ/PZX7LrjPNWxefZV76wpeYZ1z6D1bIIm5fxFq8Oq677d6CdCUYQoBYCYteevM9Mzeb9eJn50wv1l69VMDevXttvPe9782qBbYa6c2KcEXGVT3oF77lA+Zjl/+pOXj+I3LBf+WKi8znblo2d9z3YJYTAITYv39/7rag6Eti98QfE1r0EidPxvWE37QiTx4+7i1fKkle7ugQycuQyFUfvMXc8ue/n0teQi6ayvANAFSzvr5u9u3bh+gdUgGwvbihEzesIndxuKGXp73hw3Z45k0veG5B+EsXnWPe8qq+ueSqa2260J0fcuFUD824iO3WOYBRIHpE3xjkDpHPfv7L5tZ/udJ87VXnmjsuPisX/xdf9DTzqZc/y7z/715rrth7bd4AuJD7sP1vD37IrYJ6Gx1VF12H3ZsNMC0gekTfeOQed3nnufuhCv2UqrvN0r20y91Wefy71Q8Qhe5hl7j0/YeCjYCEXFcINR6jQu57D+WnQz/0o2PUXT1cxwBHUPRtuxgL8SEvDNPvT5cnWUX4/kvCZMxfPyTl3l8+yRd/+U+lyh0/IXHrIatRMakHo4Y1NNKwhcpZFVUND3czbT9h0SeqV7dUcnslRIm8A9318EXy7onZ0KsP5FuCrNPvrdENw1Y8ObsR9BsaJaq+nbioeto2dKF8q0L2FSqDjqqnb0c9dVsVcjtvm6gSfdqr54EpaDnuVcLygJYWvEhfv0LBhXsCV4aRdHp5Ytc1KhJNxX+BmVyjCAm46j05EnWul0xr1GmUJhGjXisxbvz6OZfGKfC6IHqYBO7bgbzgzMnd/+Wmqt9Gde/Z0S9Kc+E3ENPyzWGSyNBW1XCWH/5Tzk1uNE5tfALRA5xqnLi11N3FZBfuPT2hCP10n35/fejXoGL+ub73ffl46VW/F/3n1805Vx+w8eirPh+QX8uizSB6aAL65W0icV/yfoQaBxfuG4SEvhAtb/jUDYOLNtD/7yOFRuIP9h0wZyaNg45fvfxTYYHWCn5haltB9BAj+h37OuQ2VP1rV1Xv3K8bLh8doSEoF24oqok/uiK3q+phIx2/1A+IddqizSB6gDAiYy3pzTYKdcP9Mlco5LqHLpMLufvJ4TduLkKvpJ4UVb+y5eLdXzxW+MYwKoKi3my0GUQPMHn0Nwr5FuGeY/AjdOfSVoUesvJD/8TjuCF3Zjn0Lbs6tvsi+i++9COIHgC2F7lbyUnXf6itTSEX4KUOqq6XbDSe8rizED0ANAv31PN973mdOf7Oy2zcdekTS3H0wjPN0QseaePI+d00zjvdRki00xpHAsuGLffjK896GKIHgPYQ6vHe84Zd5s5LHmuOXvyYNP7kUebweYkkJTJZHkqmDyl5biS2cvtReWfKayeIHgB8ZNxdX+yVxkCQsXz9IJxcoE6HmpJvCK5hCEUi2lzE3nK9fjMil6hKI8sz5bUTRA8AdZGLqv63ARdyIdb9prEfP/jijWb10rPNnX/2O4U4mnyLOLL4KBtHnz9vjlz8W3a5FbTXIMg3Crt8lwpZpuddeNsfRPSIHgCmixM3LplvXvm8PO5dutycuOHqciTp9DcPF8flWQm1/SuefAaiBwCIGfFcprx2gugBIHYQPaIHgMhB9IgeACIH0SN6AIgcRI/oASByED2iB4DIQfSIHgAiB9EjegCIHESP6AEgchA9ogeAyEH0iB4AIgfRI3oAiBxEj+gBIHIQPaIHgMhB9IgeACIH0SN6AIgcRI/oASByED2iB4DIQfSIHgAiB9EjegCIHESP6AEgchA9ogeAyEH0iB4AIgfRI3oAiBxEj+gBIHIQPaIHgMhB9IgeACIH0SN6AIgcRI/oASByED2iB4DIQfSIHgAiB9EjegCIHESP6AEgcmqLfnbO9JK0kn5+vmfmZmfUdh3Tzdd1TWdGr5tyED0AxE490aci73YygXe6BaF3uvOmNzebT893O4geAGBaqCV6EXtvzszmPXURv+vV6+kE2/NvUK9eKmBlZcXGwYMHs2oBAGg2q6urudvq9eh9lNxLYvfEP+1IBSwuLuZx8uTJrJoAAJrJ+vq62b17d+61jYjeDs+4Hn4MogcAiJlxRT8710u2GTZUg+gBAKaKkOhTmZfvoilJXkD0AADTTUj0IYKSt3hib+LFWACAmKkleivv6l66vqWS2ysBAKaMOqK38k7S+ZHfV2979W55g3rzghQaACBmxHOZ8toJogeA2EH0iB4AIgfRjyH6c889NxufIoh2h3wWoDnI/yxTXjuRCqjLOGkBYobPQrNA9IgeYGz4LDQLRI/oAcaGz0KzQPSIHmBs+Cw0C0SP6AHGhs9Cs0D0iB5gbPgsNAtE3ybRry2ZhfSx5Sz6Zjlbla5T81vNJPeXHVffz6zuPk71sUcAom8WiL41ol82/ZkFs7SWzQrLfTOzsGTsoibLLhN9oeESEPiWgeibBaJvi+hFek7qJaQR8Hr5uTzTGPSWJW2SRhqJbN1C0nqsLS0U5nXaJbUuz0dL2Jatb/oLof0Jqnw2nddgubykTHpDvQ+hcEz+8sF89bEEtm0piL5ZIPpNiH7PjXeap7/rtqmNi6/Tv4HrROVJ0lGQ3ZpZSqTrnGnFlzcSWT6Dlak8C/Mun1DabF1pWsldf9PIypIL1zYwFaJPJpf7FY1JVpZBUdQxDS2XTAfKUNlotgNE3ywQ/SZEf8d9D5rlO09MbRw49kBW0gEiwuSws1DCLEjRoyRMLdph8/66dP9WtlVyFYats9It5lkuX2BbmS7IWZWttL1qLIRSGcrH1TYQfbNA9JsQfeOxveOAFDOKjYIWoZbcsPmyEDck+oKgR4leZpPeuuxELy/1wlU+/v5tvWTHneej60LCK0PLQPTNAtG3WfSVshNBq6GK0jotuXFEnw6BbG2PXsjSLHv51OrRayRNsrxyfXtB9M0C0bdF9Lr3npOJTCa1zDyxpT17N+/Le9i8TCfbunGQqn34Ii3Mp41D3TH6HLvML/foMfr820BhuVeG0P5aBqJvFoi+LaJPsBKz8nOhZZXKzC3Twzb9ZZGkSztM7IKeT6f7fbdflU7L0hdnSaSST1ae/lKNHn1Kerx+vu64qvbn6iEN5/xCGQrH204QfbNA9C0S/anHbwQmQIXU4dTCZ6FZIHpEv4VMQvS6J01velrgs9AsED2iBxgbPgvNAtEjeoCx4bPQLBA9ogcYGz4LzQLRI3qAseGz0CwQPaIHGBs+C80C0SN6gLHhs9AsEH1bRF94WGgQgweChjF4iCh/OrQBlB4Qq3ewk2VS9/1n/7/SIdTNf8LPHyD6ZoHoWyV674O+TZI4FRRecWDxXmPQNOz/QBqsDf4PJwyibxaIvs2it/LTDyDph5Nc2qpH/0NpE2Q/+Y+IhPKoSptGoceay02ixr5zZH3gwSrJT++gkL/at13ulVPN628KuuEILg/mVbHPkXWR5CPv+ikdQ1X+4x/D6LpNQfTNAtFvQvQP3n6z+c71bx4Zki7EVm9f2M4XglBY5vV49Wt9S9uOSqslNUZavS4TTnndkPwcoWUl0nxc/oVvAP7x6vnNTI/cZ1VdJKh88lc9C4X8i3VWeUxV01n5htZtBqJvFoh+E6JvFPYD7XpqgwgLQ1C9Yn/dqUgr0yHJDMvPIYLKD0xIBZges95W4e+7qlxZXoXsLRXLS+VV1N5nQqkMge1kulBnqm5K29cpq9reA9E3C0TfKtEPPsTSK8x7boJdX2wE8uESXwBbmjabr+pNDsvPMXRbtb8E/ZbOvBEYVi5B8nfbaFuGlk9qn9687a3LPvTy0nFLD72irivLqssm4dVtBqJvFoi+paJPJTCsR6/w152KtDJdU9ZlVI9XU9g27dXmjZ2/b7195T4r9qOXT2qfpTJkEp/Uj6vIZGWaMoi+WSD61oo+wfbq3DJvfFanL227RWkL86kUyw3RkPwU6cVGvTzdrqoHnfay3bwSpMypdXlPWlB5VC2vnE4o7NNbN3JesMv8cg/qrGqMvrKsNetWQPTNAtG3WfROfrlNU1Ek1ZKE+soe3HYL0gbn3XZ6TLkiPx89PCExyMCih1CKP64iu5aGIrTONRhunV2YULHcO6bKfdaqCzWfkZbTT+f2UbV91TEI9eoW0TcLRN8W0QNMED4LzQLRI3qAseGz0CwQPaIHGBs+C80C0SN6gLHhs9AsEP0YJ+zZZ59tK4wg2h7yWYDmIP+zTHntRCoAACBmED2iB4DIQfSIHgAiB9EjegCIHESP6AEgchA9ogeAyBlb9LNzpjffM3Oz9nUYGR3TTfKRvObnu6aTviqjGSB68FlcXMymAFKafk6MK/pOV2ReFL0s683N2nm7vttppugPHjyYTRlz8uRJc+zYsWzOmNXVVbO+vp7Npej0jtAywc8vRNW2IerkNw46Pz9vv1z+fKhuhpVv1HGG8hvGOPVWh6pzQo5Hjsux2XPCzy/EOMc2rM43gs7Pz9svlz/POTEgVJaq8vn5hRjn2Fx+Y4m+0zXzvZ7Xo5fevJq3Pf4G9er1P3Dnzp35ibh3714bjj179pj9+/dnc8asrKwEW3mdh8bPz0e2kW3rMiq/cdH5yXHK8Tp0HYXKKfUg9aHx89Do/EL4dT2KUfmNy6TPiary+fn5VOVXxaj8xkXnN4lzYlj5Rv0PQ/kNYyvPCT3tH9O0nhOyv0x5IxChJwL3h25KYvfEP+3s2LHDVgJBEETE8fNMeUOZnUt68jI8E5voAQAgQWTemzOzInNEDwDQfKT3Pujxd023O2+6HS12RA8AEBEi7sJQzyDs3TWe2EviBwCAZuH36BP0LZWNu70SAAA8AqIv9vrpzQMAAAAAAAAAAAAAAAAAAAAAAAAAAAAAAAAAAAAAAAAAAAAAAAAAAAAAAAAAAAAAAAAAAAAAAAAAAABMFzMz/w8fsevhTpBV1gAAAABJRU5ErkJggg==;" vertex="1" parent="1">
          <mxGeometry x="660" y="293" width="378" height="264" as="geometry" />
        </mxCell>
        <mxCell id="5ZlzFRV1RBMYGkfswWvm-6" value="" style="shape=image;verticalLabelPosition=bottom;labelBackgroundColor=#ffffff;verticalAlign=top;aspect=fixed;imageAspect=0;image=data:image/png,iVBORw0KGgoAAAANSUhEUgAAAXoAAAEICAYAAABRSj9aAAAAAXNSR0IArs4c6QAAAARnQU1BAACxjwv8YQUAAAAJcEhZcwAADsMAAA7DAcdvqGQAABvuSURBVHhe7Z1/rCVXXcBfNf5I3j/mJviAehEu5S1N06CmAhGasJGEl0hApeWXPlo0mLKo/HrWRQKIqQEjiq4V2fpAiAREXSShDaC0L1AQH2lahLLdH33t0q62pbCwhcIrBI/zPTNn7nfOnJk78969++6c+XyS7+78PHPm3JnPOXPmx1sAAAAAAAAAAAAAAAAAAAAAAAAAAAAAAAAAAAAAAGjH4pIZLY/M0uKCyaYkDMxwedks2xiawYKeBwAAnWIwFJkXRS/TRkuLdtzOHw4QPQBAJxkMzfJo5LXopTWvxm2Ln1Y9AEAHEaEnAve7bkpi98TfNfbt25f1QREEQUQbj2TKK7C4lLTkpXsmdtFLITj2799vTp8+bYcPHTpkw3Hw4EFz5MiRbMyYzc1Ns7q6mo2N0Wlo/PR8ZB1ZtymT0muLTk/2U/bXocsolE8pBykPjZ+GRqcXwi/rSUxKry3TPiaq8uen51OVXhWT0muLTm8ax0Rd/ib9hqH06pjlMaGH/X2a12NCtpcpb4zIfLRkFkXmfRL94cOHzfb2th2WAtUH1vXXX2+2trayMWMefPBB88EPfjAbG6PT0Pjp+cg6sm5TJqXXFp2e7Kfsr0MfeKF8SjlIeWj8NDR1B7Lgl/UkJqXXlmkfE1X589PzqUqviknptUWnN41joi5/k37DUHp1zPKY0Gn7+zSvx0RI9HKDdTjQYu+J6AGEiy++OBsCSOn6MVEWvYg72MWTPV3jib0k/o4hOwagadNyhH7Q9WNCPJcpL4zfok/Qj1R2/vFKRA8AsbMT0Rdb/R1uzQuIHgBiZ6LoYwfRA0DsIHpEDwCRg+gRPQBEDqJH9AAQOYge0QNA5CB6RA8AkYPoET0ARA6iR/QAEDmIHtEDQOQgekQPAJGD6BE9AEQOokf0ABA5iB7RA0DkIHpEDwCRg+gRPQBEDqJH9AAQOYge0QNA5CB6RA8AkYPoET0ARA6iR/QAEDmIHtEDQOQgekQPAJGD6BE9AEQOokf0ABA5iB7RA0DkIHpEDwCRg+gRPQBEDqJH9AAQOYge0QNA5CB6RA8AkYPoET0ARA6iR/QAEDmIHtEDQOQgekQPAJGD6BE9AEQOokf0ABA5iB7RA0DkIHpEDwCRg+gRPQBEDqJH9AAQOYge0QNA5CB6RA8AkYPoET0ARA6iR/QAEDmIHtEDQOQgekQPAJGD6JuK/tS6WVlYMeunsvGMjbWFpADL088pNm9rZiMbbceGWVuQfUhjpe2O2G279b1y2FjL011YWTd1KZ9aXxkva0PtT106el7d9vf6NwLYQypFv7hkRsk8mb+8PDJLi/Z8yRiYYT5vaAbpudRNdiP6VE67Eexey+eUWV9Rcq+ozKpJK4k1VwBWrFl5ZBWAm2fLqkb2UmHm6Wjq0rHz/ApBb79iHkDPCIs+FflwkAl8MCwIfTBcNqOlxXx4eTgIpNERdiz6XYtjHkTv58ET/ySkDAryVunVzSsh262Y1yqdnc4DiJug6EXsoyWzmLfURfyuVa+HE2zLv8OteimA1dVVGwcOHDBnz57NisZDi75K8n4rUo/L8MqaWUtEmmxWhZZPKtp8nt8CtumN5+ct4OB2A8v5BNdT+bH7OU4nDz9fOZNEX5WXdL2VfN+9PDRMp+4Ka3dXXwDdYnt72xw8eDB3W7hF76PkXhK7J/6uIQWwubmZRyVOghupRIPCCoozG7fDurXstzAzyY/tHRivEGBhuzXL+eTrpfKsFngz7P2KQp5UOWWVRnW5jfNckHKTdLJlgv3wdfMAIua2224zzmtNRG+7Z1wLP0bRNyIXRiLrtbWCmHLsMnWi1+t4ovfXFQrTfPErmi7n42/Tju/ghmxCKmevTDIp21hbt/lqkq20bMpyn5QOLXqAMJNEv7g0Spap66rpmeidBIPiCIozG/fnJUMTRe8vY8cz4am8hNMOLOcT2qaVajZNC1aH1/IPSr6Ed6VRS1pZhSuFunT88tLUzQOImzrRlyQv9Fv0WhSBlrMvTj0elLFKLyTd0DSHFnLT5Xzsep786tIK0EzyCa3SrZFybTqIHiBEleiDkrd4Yo/hZmwjKqWoW8wik3FLtNDqLwnKF0+54rB93vm4t7wIPNhHX7OcT5Z/Pb+4zQmEysThzatN16uMyn39Fel469nyduvVzQPoGUHRW3lXt9L1I5X9fbzSYYXid+nYgkumrSfSzWRj1x+LJ5mQil1VDHqaDV9M2bbSUHnx065azsetp5dvIUMr3Xw743D7o8uimG66n9r7hWUL5VSXTov1vHkAfSIkeivvZLof+XP1tlXvpne4NS/ITvSWUuUDADEinsuU108QPaIHiB1Ej+gRPUDkIPo+ix4AegGiR/QAEDmIHtEDQOQgekQPAJGD6BE9AEQOokf0ABA5iB7RA0DkIHpEDwCRg+gRPQBEDqJH9AAQOYge0QNA5CB6RA8AkYPoET0ARA6iR/QAEDmIHtEDQOQgekQPAJGD6BE9AEQOokf0ABA5iB7RA0DkIHpEDwCRg+gRPQBEDqJH9AAQOYge0QNA5CB6RA8AkYPoET0ARA6iR/QAEDmIHtEDQOQgekQPAHPG9x+4xzx8++fykPEQ/nJV8cyLLkD0AAB7gUj46x9+Rym2DjzNnHjh4/LYeuUvmjPXX1eKU298njn5kieU4sSLfraw/g2/8lhEDwAwS/7v+9vm/r9/g7nv2lcX4t63vtDc/bu/pOIZ5tTas83xyx9jTrzgsXkcvywZv/z8JH6mEMcuHy9TWP4FxfWP/vpjED0AQBO+e/yWUreIxF2vfVbWeh6WZOxC5OsL2I0fz4blfzd9mnEsiUx5/QTRA/SPMze8x5y+5qV5fPXq55i7X32p2fqdXzAnXvx4c1y6PjLp6hBhVok0NH1eAtEjeoBOI33aD37gT0vdIhJ3vfJpZuu3n2Lj5G8+yZx86RNtH/bxy8+33SN5XDaWog1/3AsRp4vQ/FIk6R2TNEOhlqtLz1/fjuv5WehpLm6n6wbRA+w1oadH/ufPXm7uffMLCiHCDomMqI8/vvTxiB4AdoYv51B885PvLz1V8rV/eHMu75Mv2xeU016F5EdXLtOI//3Lq7IS2xuedOFFiB4AJvPtzY+XhB0S5Szirlc+tSBOqSh0PvQ8HZLnUOVTF9t3357t8fT45nd/YDbuPNM4Dt18r3nVR45NLc57zb8jeoCY+cE3HwgK7Vs3/ZOV5AOH/7Agx3ve8NygbOvi1OufXUijLqQ/XUtaZPzI6ZNZbrvJzVvfMu/8zFcr4yUf+LI5/08+2zgWXn/jdON1SfQZRA9dQx7xc5KWJ0acQHciaNdSlnS0fEPxjY/8TbDCkPjhd85muesnP/L6mxKh1oSINiTgqpDlpx19BtHDXiFy1LI887HrCmKVlraIOCToUNz9+5fm0nfht55lO1Wv08OY204/ZN7yibsKcdW/HDM/cfWG+fFALLzuU2Wxzlv0GUQPs8DJ2wn2/mtfk8s39ORI6AagL2kJaVXPog85dr73gx+at33qVC7tR7355rAMZxZzUBH0GUQPTRHBirxdt4mE6zoJydt1i4jk3fLSaneVAMKeHh/7yoPmig8dLcSl194aFl4wOtAi3230GUQP+hluaTG7R//kBqMvbwlpfcvjck7e37n1JuQ9A+Tpk1cdORaW1qSYZV93B+O81yYVWZ9B9PGjb15KuKdMpE/byVtuZMo0/diek7eEpAHtuOOBhwuPDP7d506bK5OW9rPedWttPPot57pb5dzEi//x9kKf/7mMR//yFYgeuovrTnHx0Gc/WngZx363JBG5e/zPidwtL18VhDC+qF2889P35AJ5zUdP5IJ++l/fEhTcXsbP/cUXCpVIVUgFpMXYNqQSC5WVjr1EPJcpz2Nghsk8mb+8PDSDhYU4KwRE3y3cM+HSxSL946G3KqVv3D0KGONjf/c99EhJIh+/4+tBAUk0aUWHJDmrkBa7v/1ffe+XgnmXG6j+vlYFVFMl+sFw2YyWFu08GV4eDhA97A0id3kCxbXOJXQ/ubxw42j7BmKb0E9t7CTk0t0XnB8hMe4mnvz2zwe3E4pQnl3825e/FiyTz5/6VlbyMM+ERS+t+ZFZWsxa8YtLZhRrq14K4NChQzbe9773ZcXSbfxHySZFkxbfNKJt3+uFv/de8/YrXmS+dNnjcsH/7epzzVNe9e7g8jp+8uqNYB6mGVf967FgebaJNi1WpAptOHLkSO62oOhLYvfEHxNa9BJnz3b/Uv/ub3yvUetRx7nsX5VthfLgx/P+6kbzqSuekUte4hO/td9ODy2vQ/qOQ2LdbTTpi20S8hsBzIrt7W1z+PBhRO+QAoBzhwguJL6q+MwXvmxuefc15otvO1AQ/pf+6HI7/bM3bZTW2W0Xix/Scg9VJk3ip9746WBl1zaa3lTUEbriaHoFIfcBIB4QPaLvFPLxK+mXlydo9EtK8lSN+16L3ITt4uOQ0jUTkq4LX9or130xKHgX0j8fqjR2ElJhhbbRNKq6uUL7qYPuqumA6BF95xGpyzfP3R+q0BWAe8xSVwJ9f6xy0g1r/fikREjcEtO6WplGtL0nI117oX13EVsFExR9327GQnzIY5X6++nyhI4I3/9ImLwopV+Sct8v58Nfzal63t6F7kqTxyi1cEPS7mKEHhndTUz75apHPeeqoLz1I5U8XglRIt1AroUvkndvzIY+fSBXCTJPf7dGVwy8Obt75GmxUEUhITfBRVh+ReFinq4u5jJe+x8VApdWPS9MQc9xnxKWF7C04EX6+hMKLtwbuNKNpJeXN3ZdpSIB08Xd5P/k8W+YV/zzHeaKD32lEBf/+WYiPPkuvI6AEKMNvnWTHSoAO8ddHcgHzpzc/b/cFHqLV8J9Z0d/KM2FX0Fw5bAz7n/okYL4n3DNf5qlt9xs46eTOG/uvl45g/z0GUQPe4ETt5a6u5nsQr8J7Ie7ctChv1/vPgGho+t/ru9cErphffCGO82PXX1jMIJiLcQcVCR9BtFDF9AfbxOJ+5L3I1Q5uHBXEBL6RrR84VNXDC5gjC9/F++/5b7g34p1IY+6/ugf3Ng4gqLebfQZRA8xor+xr0MeQ9V/7Sp047lNuHR0hLqgXLiuqL59t7/tN5iW3/Z5M3jTp6cW5yF6RA8QQmSsJb3bSqFpuL/MFQq576Hz5EJ/2M6v3Fz0+d2JJ114EaIHgOmiryjkKsK9x+BH6MmlWYXusvJD/4nHtqE/ha0f2dWx1zfRxXOZ8voJogfYe+RpJSdd/6W2PoXcgJcyqLpfstN45kUXIHoA6BburecH3vsmc9+1r7Zx11VPLcXJlz7RnHzxE2yceOEwjcvOtxES7bzGicC0uul+/PevPQbRA0B/CLV473nr5ebOl19kTl755DR+4wJz/LJEkhKZLI8lw8eUPHcSs1x/UtqZ8voJogcAH+l31zd7pTIQpC9fvwgnN6jTrqbkCsFVDKFIRJuL2Juu5+9G5BJVy8j0THn9BNEDQFPkpqp/NeBCbsS6v2nsx7f/6wazddUl5s5X/HwhTiZXESdWL7Bx8mXL5sSVF9rpVtBehSBXFHb65Spkmh534a1/FNEjegCYL87csG7uveYledy//gZz5vrrypEsp688XNwn70qo9V/39McjegCAmBHPZcrrJ4geAGIH0SN6AIgcRI/oASByED2iB4DIQfSIHgAiB9EjegCIHESP6AEgchA9ogeAyEH0iB4AIgfRI3oAiBxEj+gBIHIQPaIHgMhB9IgeACIH0SN6AIgcRI/oASByED2iB4DIQfSIHgAiB9EjegCIHESP6AEgchA9ogeAyEH0iB4AIgfRI3oAiBxEj+gBIHIQPaIHgMhB9IgeACIH0SN6AIgcRI/oASByED2iB4DIQfSIHgAiB9EjegCIHESP6AEgchA9ogeAyEH0iB4AIqex6BeXzChZVpZfXh6ZpcUFtd7ADPN5QzNY0PPmHEQPALHTTPSpyIeDTOCDYUHog+GyGS0t5sPLwwGiBwCYFxqJXsQ+WjKLeUtdxO9a9Xo4wbb8O9SqlwLY3Ny0cfTo0axYAAC6zdbWVu62Zi16HyX3ktg98c87UgCrq6t5nD17NismAIBusr29bQ4cOJB7bSeit90zroUfg+gBAGKmregXl0bJOnVdNYgeAGCuCIk+lXn5KZqS5AVEDwAw34REHyIoeYsn9i7ejAUAiJlGorfyrm6l60cqebwSAGDOaCJ6K+9kOT/y5+ptq95N71BrXpBMAwDEjHguU14/QfQAEDuIHtEDQOQg+haif/7zn5/1TxFEv0POBegO8ptlyusnUgBNabMsQMxwLnQLRI/oAVrDudAtED2iB2gN50K3QPSIHqA1nAvdAtEjeoDWcC50C0SP6AFaw7nQLRB9X0R/at2syCvLaxvZBMcps74irzKvGX9OCZtGy+Xcdr1YWT9lF507mu5jE7J9Lxf5DspxzkD03QLR9030vjiqpofYiaCC66SVS0mAsVFb5g3KcY5B9N0C0fdK9Gtmbc0T7MaaWVlLoiCeDbNmBaUlFZiWiyyNPF0tsgqpnVpfSVv1Mn8lyZe+qiik661bmLdixhcGoTynyLZcHvWVRHC6n/c8b2kUKye1Tbuczk+CSysp48KVlN6GUNgnf/p4PLwf1fs9SxB9t0D0uxD9wRvuNM96161zG1d+SP0N3ArpbKwlctrQQklb27lIZPmV9WRqQkE8xVa5lVBoOU9WKamc7Lp2vhaompdQSNebN85bwzzvaDi0PSGwzULFk6DS2tAVrN5G8m/l/tbmS4Zr9nvGIPpugeh3Ifo7HnjYbNx5Zm7jttMPZTlNyOUgYlGSETFUCcUiy2cCK81TVKVhh12Lcxy5nPw0ZbwgK2/7IZH5aeh17LCSbE7FdJ1WKG9V86x0q0Wfbi+wrgzX7W9hfS+/pTyodWcMou8WiH4Xou8USgp56zJpAVrh+uLJZDyOkHhSJK3xcjqNwHAIf36pVaoEWtVircuzYFvb2XRtytD0urz786ry6fDWt6112Y6eXre//vb9/Nr52XgeXh5mBKLvFoi+h6K3wkhEYbttfKH4ctEU5qUtzGDLvGl6gj9fxutauJWir9lGjqQVWk5N12mF8lY1r4Ho82V0V5ksU7e/hfUdWX4r588eRN8tEH0fRW9FIa0/JZt8nsiovcDTlv3k5UqU5qd5Gzewa/ro83Wr85y3ohtOrxwWCuPeNm1re5LoE+w0VVbJv5X7q9YP57fmt5oxiL5bIPpeij4Tc0h0FlcRSGh5pWJxktLdNmsbsk6Whk5vknxC8+00l3bdPCX9ZKn6PPvLV0yvy3spr2qba+tJeg1En2ClXUrX5aVqe1X7UbXfswXRdwtE3xfRw2ypkHqscC50C0SP6GFH6Jb0uW1NzwOcC90C0SN6gNZwLnQLRI/oAVrDudAtED2iB2gN50K3QPSIHqA1nAvdAtEjeoDWcC50C0SP6AFaw7nQLRB9X0RfeClnHOMXb+oYv6yTv4XZAdIXk9T+NtvZ6TKt5+uz36+0C03Tn/Jz/oi+WyD6XoneO9H3SBLngsKnBCxpZdWliqqA/Q2kwtrhbzhlEH23QPR9Fr2Vn37RR78E5JatesU+tGyCbMf/QyKNlk2j0GLN5SbRYNs5Mj/wApOkpzdQSL/iMwiCN66vFHTFEZweTKtimxPLIkkn+yBdTm367fdhctmmIPpugeh3IfqHb/+c+fqH3zExZLkQs16/sJ4vBKEwzWvx6s/nltadtKyWVItl9bxMOOV5Nek5QtNKpOm49AtXAP7+6vHdDE/cZlVZJKh08s9MC4X0i2VWuU9Vw1n+ass2A9F3C0S/C9F3CntCu5baOMLCEFSr2J93LpaV4ZBk6tJziKDyHRNSAab7rNdV+NuuyleWViF5S8X0Un4VjbeZUMpDYD0ZLpSZKpvS+k3yqtb3QPTdAtH3SvTjk1hahXnLTbDzi5VA3l3iC2Cmy2bjVa3JuvQcteuq7SXoL3DmlUBdvgRJ362jbRmaPq1teuO2tS7b0NNL+y0t9IqyrsyrzpuEV7YZiL5bIPqeij6VQF2LXuHPOxfLynBDWZdRLV5NYd20VZtXdv629fqV26zYjp4+rW2W8pBJfFp/xEQGK5cpg+i7BaLvregTbKvOTfP6Z/XypXVntGxhPJViuSKqSU+R3mzU09P1qlrQaSvbjStBypial7ekBZVG1fTK4YTCNr15E8cFO83P97jMqvroK/PasGwFRN8tEH2fRe/kl9s0FUVSLEmoS/bgujNYNjju1tN9yhXp+ejuCYlxAhbdhVL4wykJaUURmucqDDfPTkyomO7tU+U2G5WFGs9I8+kv57ZRtX7VPgjNyhbRdwtE3xfRA0wRzoVugegRPUBrOBe6BaJH9ACt4VzoFoge0QO0hnOhWyD6FgfsJZdcYguMIPoeci5Ad5DfLFNeP5ECAACIGUSP6AEgchA9ogeAyEH0iB4AIgfRI3oAiBxEj+gBIHJai35xyYyWR2Zp0X4OI2Nghkk6ktby8tAM0k9ldANEDz6rq6vZEEBK14+JtqIfDEXmRdHLtNHSoh2384eDbor+6NGj2ZAxZ8+eNadPn87GjNna2jLb29vZWIpe3hGaJvjphahaN0ST9Nqg0/PT9vPlj4fKpi5/k/YzlF4dbcqtCVXHhOyP7Jdjt8eEn16INvtWV+Y7Qafnp+3nyx/nmBgTyktV/vz0QrTZN5deK9EPhmZ5NPJa9NKaV+O2xd+hVr3+Affv358fiIcOHbLhOHjwoDly5Eg2Zszm5mawltdpaPz0fGQdWbcpk9Jri05P9lP216HLKJRPKQcpD42fhkanF8Iv60lMSq8t0z4mqvLnp+dTlV4Vk9Jri05vGsdEXf4m/Yah9OqY5TGhh/19mtdjQraXKW8CIvRE4H7XTUnsnvjnnX379tlCIAiCiDh+mCmvlsWlpCUv3TOxiR4AABJE5qMlsygyR/QAAN1HWu/jFv/QDIfLZjjQYkf0AAARIeIudPWMwz5d44m9JH4AAOgWfos+QT9S2bnHKwEAwCMg+mKrn9Y8AAAAAAAAAADMmkWzNHL9UeNvPAAI9tE0bkaBIJ8McH3X7jl06AaFEzl4YwJ6iz0ekpMa0YPnBnkaJX8WHbqGtO4RPQjZsbCUtOIQPSStea72Y0FqbS7JICH/FohcriP63iPHw3Apu8Kj62YvCL2iu4PnQO2lGc+MxsEujwld4SP6SNjdMWG7eJXc9TfbYea4H6r4A+ofwX+zy45nP27xew9IPg52f0zYkzobzwPZd5jpHBMFsdMAODe4k3E0HBZukqQ/qhqfJHEkHw1TOyY0nNCdZlae0JUEzJDFwSC9jLI/QN0P5v2gHrrmTqN6WZhvpnVMFED0nWaqx4QcC84THBPnmGme1BAHHBPgwzHRcfgBwYdjAnw4JjoOPyD4cEyAD8dEx/F/QP8HK/2gED0cE+DDMdFxSj9g8hOqR6X8x6agB3BMgA/HRMcJ/IDJz5bU1skPZ4NaundwTIAPxwQAAAAAAAAAAECZhYX/B7TSezeiPtBpAAAAAElFTkSuQmCC;" vertex="1" parent="1">
          <mxGeometry x="660" y="540" width="378" height="264" as="geometry" />
        </mxCell>
        <mxCell id="5ZlzFRV1RBMYGkfswWvm-7" value="Time(s)" style="text;html=1;strokeColor=none;fillColor=none;align=center;verticalAlign=middle;whiteSpace=wrap;rounded=0;" vertex="1" parent="1">
          <mxGeometry x="340" y="820" width="40" height="20" as="geometry" />
        </mxCell>
        <mxCell id="5ZlzFRV1RBMYGkfswWvm-8" value="Amplitude Probability" style="text;html=1;strokeColor=none;fillColor=none;align=center;verticalAlign=middle;whiteSpace=wrap;rounded=0;" vertex="1" parent="1">
          <mxGeometry x="770" y="820" width="120" height="20" as="geometry" />
        </mxCell>
        <mxCell id="5ZlzFRV1RBMYGkfswWvm-9" value="Sound Pressure Amplitude" style="text;html=1;strokeColor=none;fillColor=none;align=center;verticalAlign=middle;whiteSpace=wrap;rounded=0;rotation=-90;" vertex="1" parent="1">
          <mxGeometry x="10" y="405" width="155" height="20" as="geometry" />
        </mxCell>
      </root>
    </mxGraphModel>
  </diagram>
</mxfile>
